<?xml version="1.0" standalone="no"?>
<!DOCTYPE svg PUBLIC "-//W3C//DTD SVG 20010904//EN"
 "http://www.w3.org/TR/2001/REC-SVG-20010904/DTD/svg10.dtd">
<svg version="1.0" xmlns="http://www.w3.org/2000/svg"
 width="1136.000000pt" height="1136.000000pt" viewBox="0 0 1136.000000 1136.000000"
 preserveAspectRatio="xMidYMid meet">
<metadata>
Created by potrace 1.14, written by Peter Selinger 2001-2017
</metadata>
<g transform="translate(0.000000,1136.000000) scale(0.100000,-0.100000)"
fill="#000000" stroke="none">
<path d="M4221 9375 c-4 -5 -7 -734 -7 -1620 l1 -1609 -24 -21 c-47 -40 -73
-71 -89 -105 -21 -47 -24 -143 -5 -188 18 -44 64 -102 81 -102 6 0 12 -5 12
-11 0 -5 4 -8 9 -5 5 3 10 -7 12 -22 2 -15 4 -335 3 -712 -1 -619 -5 -819 -19
-890 -3 -14 -7 -40 -10 -60 -20 -137 -59 -260 -121 -383 -38 -78 -57 -108 -99
-166 -5 -8 -42 -47 -82 -86 -80 -80 -187 -141 -303 -171 -71 -18 -239 -23
-330 -10 -73 10 -250 73 -250 88 0 4 -7 8 -15 8 -9 0 -27 11 -40 25 -14 13
-25 21 -25 17 0 -11 -89 81 -129 133 -46 59 -101 161 -125 230 -10 28 -21 57
-24 65 -7 21 -7 19 -20 80 -32 156 -41 250 -42 463 l-1 127 -582 0 c-320 0
-587 -4 -592 -8 -11 -7 -13 -267 -3 -278 4 -3 2 -18 -2 -34 -4 -16 -6 -31 -4
-33 5 -4 7 -22 19 -162 7 -83 14 -144 21 -175 3 -14 7 -38 10 -55 9 -57 55
-240 75 -299 41 -120 144 -347 161 -354 4 -2 8 -8 8 -14 0 -5 14 -29 30 -53
17 -24 30 -46 30 -49 0 -3 7 -14 15 -23 8 -10 37 -47 65 -83 141 -178 333
-340 524 -439 31 -16 63 -34 70 -40 8 -7 18 -11 22 -10 5 1 34 -9 64 -23 176
-81 452 -147 675 -164 73 -5 352 -5 410 0 138 13 255 33 365 62 92 25 245 78
248 86 2 5 11 8 20 8 10 0 37 11 61 25 23 14 49 25 57 25 8 0 14 5 14 10 0 6
5 10 12 10 11 0 172 98 208 127 260 206 433 416 561 678 13 28 28 53 32 56 5
3 8 9 7 13 -1 4 8 30 21 59 13 29 24 54 24 57 1 3 4 12 7 20 27 77 50 148 53
160 1 8 8 35 15 60 15 56 18 70 19 93 1 10 6 15 11 12 6 -4 10 -12 9 -18 -1
-7 0 -19 3 -27 12 -33 60 -206 61 -217 0 -7 4 -13 9 -13 5 0 7 -4 4 -8 -7 -11
79 -224 134 -332 59 -117 138 -246 212 -343 61 -81 320 -347 339 -347 5 0 22
-11 37 -24 36 -33 101 -76 112 -76 6 0 10 -3 10 -7 0 -5 15 -17 33 -27 43 -25
216 -116 222 -116 6 -1 75 -28 100 -40 18 -9 146 -51 170 -56 6 -1 28 -6 50
-12 22 -6 51 -13 65 -16 14 -3 48 -9 75 -15 235 -46 561 -45 815 5 41 8 86 16
100 19 182 35 545 198 656 294 13 11 24 18 24 15 0 -5 77 55 125 98 54 48 195
190 230 233 86 103 196 270 240 362 11 24 23 43 28 43 4 0 7 5 7 11 0 5 12 36
27 67 15 31 27 59 28 62 1 3 8 19 14 37 7 18 12 35 11 39 -1 4 2 10 7 13 5 3
17 33 27 66 11 33 22 65 26 70 6 9 18 49 21 72 1 5 5 18 10 31 5 12 11 33 13
45 3 12 7 31 10 42 18 79 37 164 40 185 3 14 5 25 6 25 1 0 3 16 5 35 2 19 6
48 9 64 3 17 8 57 12 90 3 34 8 75 10 91 24 203 23 1082 -1 1280 -3 28 -8 66
-10 85 -7 68 -16 135 -21 160 -3 14 -8 41 -10 60 -3 19 -10 53 -16 75 -6 22
-12 49 -13 60 -5 32 -42 165 -65 230 -11 33 -22 65 -24 70 -25 82 -108 265
-166 368 -30 54 -62 110 -70 126 -15 26 -117 163 -164 219 -26 32 -192 198
-232 232 -246 214 -624 387 -949 435 -16 2 -41 6 -55 9 -130 25 -448 25 -620
1 -92 -13 -117 -18 -131 -26 -9 -4 -18 -6 -21 -4 -3 3 -25 -1 -51 -9 -25 -7
-48 -11 -51 -8 -4 3 -6 1 -6 -4 0 -5 -8 -11 -17 -12 -23 -2 -43 -7 -68 -16
-11 -5 -31 -12 -45 -16 -14 -4 -34 -12 -45 -16 -11 -4 -22 -8 -25 -9 -45 -16
-214 -97 -240 -115 -14 -10 -28 -18 -33 -19 -11 -1 -118 -70 -134 -87 -8 -8
-18 -14 -22 -14 -4 0 -17 -8 -29 -17 -11 -10 -40 -34 -64 -53 -54 -43 -209
-197 -268 -267 -36 -42 -52 -54 -81 -57 -103 -13 -196 -102 -203 -193 -2 -17
-6 -34 -9 -40 -4 -6 -3 -13 1 -17 4 -4 7 -17 8 -29 1 -19 9 -47 20 -68 2 -3
-3 -16 -10 -30 -6 -13 -29 -64 -50 -114 -20 -49 -42 -99 -47 -110 -5 -11 -17
-47 -28 -80 -18 -59 -18 -35 -19 1570 -1 897 -1 1646 -2 1665 l0 35 -581 0
c-378 0 -583 -3 -588 -10z m3234 -2849 c104 -10 164 -27 263 -72 231 -106 413
-338 518 -661 31 -97 39 -123 49 -178 7 -33 13 -60 15 -60 1 0 3 -18 5 -40 3
-21 7 -55 11 -75 20 -116 27 -269 28 -670 1 -206 1 -378 -2 -383 -2 -4 -5 -53
-8 -110 -3 -56 -6 -118 -9 -137 -9 -81 -16 -137 -20 -160 -3 -14 -8 -40 -11
-59 -3 -18 -8 -43 -10 -55 -3 -11 -7 -32 -10 -46 -3 -14 -8 -34 -11 -45 -4
-11 -8 -25 -9 -30 -4 -24 -39 -130 -44 -135 -3 -3 -6 -12 -8 -20 -7 -31 -85
-190 -93 -190 -5 0 -9 -5 -9 -10 0 -19 -73 -112 -135 -172 -39 -39 -141 -105
-194 -127 -133 -56 -221 -73 -386 -73 -101 -1 -154 5 -242 26 -67 16 -201 81
-254 123 -71 55 -190 188 -236 262 -25 40 -106 200 -109 216 -1 6 -13 39 -27
75 -22 59 -53 172 -63 228 -2 12 -7 34 -10 50 -7 33 -11 61 -19 127 -3 28 -8
66 -11 85 -4 33 -16 267 -14 300 0 8 0 24 0 35 1 16 8 20 35 21 91 2 182 90
200 195 3 18 8 36 11 40 2 4 0 10 -6 14 -6 4 -8 10 -5 14 2 5 -2 29 -11 54
-23 67 -103 139 -168 151 -58 11 -57 8 -51 140 5 126 10 176 21 261 4 28 8 59
10 70 5 41 34 168 39 173 3 3 40 6 83 7 80 1 104 10 160 57 51 43 77 103 77
178 0 89 -34 153 -106 204 -19 13 -20 18 -9 31 7 8 10 15 7 15 -20 0 153 175
213 217 53 36 190 106 190 97 0 -4 6 -2 13 4 16 13 107 32 182 39 33 3 61 7
63 8 2 2 15 1 30 -1 15 -2 50 -6 77 -8z"/>
<path d="M6344 1442 c-20 -3 -21 -9 -20 -103 0 -54 -3 -99 -7 -99 -5 0 -5 -5
-1 -12 10 -15 9 -231 0 -247 -4 -6 -4 -11 1 -11 4 0 8 -27 8 -60 0 -33 -4 -60
-8 -60 -5 0 -5 -5 -1 -12 9 -15 10 -71 1 -86 -4 -6 -4 -13 0 -15 10 -6 9 -220
-1 -235 -4 -7 -2 -12 4 -12 6 0 9 -3 7 -7 -3 -5 27 -7 67 -5 l73 3 0 476 c0
474 0 475 -21 483 -11 4 -31 4 -42 -1 -12 -4 -25 -4 -30 0 -5 4 -19 5 -30 3z"/>
<path d="M7436 1443 c-30 -8 -87 -65 -106 -105 -9 -21 -18 -61 -19 -90 -4 -94
-3 -93 -48 -92 l-41 0 2 -55 1 -56 38 0 c25 1 38 -4 41 -15 3 -8 5 -130 5
-270 0 -140 0 -260 0 -266 1 -6 26 -12 58 -13 31 -1 61 -4 65 -7 19 -12 23 48
22 300 0 235 2 266 15 267 9 1 33 2 54 1 20 0 37 3 38 6 6 49 3 102 -5 105 -6
2 -30 3 -53 2 -23 0 -44 4 -46 9 -9 23 2 108 17 131 15 23 65 40 96 33 12 -2
15 10 15 57 l0 60 -65 2 c-36 0 -73 -1 -84 -4z"/>
<path d="M5820 1400 c-141 -17 -232 -101 -266 -248 -17 -73 -22 -282 -10 -391
16 -129 88 -232 191 -270 55 -21 139 -28 192 -17 45 10 111 44 142 75 31 30
84 130 84 158 0 7 3 13 6 13 7 0 9 33 9 205 1 170 -1 225 -10 225 -5 0 -8 8
-8 18 0 28 -47 115 -80 149 -35 36 -99 69 -149 78 -19 3 -37 7 -40 9 -3 1 -31
-1 -61 -4z m122 -154 c56 -37 80 -128 78 -303 0 -35 0 -70 0 -78 1 -63 -2 -89
-17 -143 -17 -64 -44 -97 -92 -114 -53 -17 -72 -17 -117 3 -35 15 -99 79 -78
79 3 0 2 6 -4 13 -16 20 -22 73 -22 233 -1 140 3 185 17 224 4 8 7 18 7 22 1
3 11 20 24 37 41 56 140 69 204 27z"/>
<path d="M1828 1033 c-3 -334 -4 -360 -22 -390 -43 -70 -137 -62 -167 15 -8
20 -13 46 -12 58 2 21 -3 23 -63 26 -36 2 -71 1 -78 -2 -20 -8 -8 -98 22 -155
59 -116 249 -155 364 -74 40 28 52 43 77 94 31 61 33 95 35 451 l1 331 -77 2
-77 2 -3 -358z"/>
<path d="M2320 1163 c-14 -2 -29 -9 -34 -14 -6 -5 -16 -9 -24 -9 -24 0 -97
-82 -115 -128 -23 -59 -30 -104 -31 -192 0 -105 10 -156 40 -213 50 -97 118
-138 224 -138 60 1 85 6 132 31 60 31 83 62 117 149 28 74 29 244 1 332 -23
76 -77 140 -138 166 -39 16 -129 25 -172 16z m100 -126 c64 -30 84 -85 84
-228 -1 -88 -4 -114 -23 -151 -33 -69 -96 -88 -157 -46 -45 31 -63 99 -60 226
2 110 21 163 68 192 34 20 55 22 88 7z"/>
<path d="M2924 1155 c-23 -7 -52 -22 -65 -34 -12 -11 -26 -21 -30 -21 -12 0
-57 -99 -55 -118 2 -9 10 -17 19 -17 8 0 18 -3 21 -5 2 -3 25 -4 51 -2 41 4
47 7 59 37 8 18 24 39 36 45 29 16 110 4 110 -16 0 -8 4 -14 8 -14 5 0 10 -27
11 -59 l2 -59 -48 0 c-26 0 -50 -1 -53 -2 -3 -1 -19 -3 -36 -4 -34 -3 -104
-36 -134 -64 -33 -31 -58 -102 -55 -157 3 -56 7 -74 18 -92 5 -7 6 -13 3 -13
-11 0 49 -57 72 -69 13 -7 36 -15 50 -17 15 -3 28 -7 30 -8 1 -2 24 1 49 5 31
6 58 20 79 40 l31 30 6 -28 c5 -25 11 -29 43 -31 20 -2 39 -3 43 -4 3 0 20 0
38 1 33 1 35 7 17 64 -4 12 -8 123 -9 247 -2 236 -7 266 -51 316 -48 54 -171
77 -260 49z m166 -436 c0 -74 -1 -78 -31 -103 -34 -29 -92 -35 -122 -12 -25
19 -36 64 -24 106 15 58 58 85 133 86 l44 1 0 -78z"/>
<path d="M3640 1163 c-36 -11 -67 -29 -92 -51 l-26 -24 2 31 c1 17 0 31 -3 32
-3 1 -35 2 -71 4 l-66 2 1 -336 0 -335 32 -7 c18 -3 35 -4 38 0 3 3 22 4 41 2
l34 -3 0 252 0 252 29 29 c16 16 37 30 45 30 9 1 22 2 29 3 24 4 65 -24 75
-52 7 -21 16 -345 14 -494 -1 -12 11 -17 47 -20 27 -1 59 -1 72 2 l25 5 -2
260 c-2 268 -6 302 -45 359 -33 49 -122 78 -179 59z"/>
<path d="M4260 1162 c-29 -8 -80 -40 -97 -62 -10 -13 -12 -10 -13 18 0 36 3
34 -80 36 l-60 2 0 -337 0 -337 41 -4 c22 -2 42 -1 45 1 3 3 17 5 32 6 l27 0
0 240 c0 219 2 243 20 272 33 56 99 63 145 18 l25 -25 0 -255 0 -255 30 -1
c17 -1 39 0 50 1 11 1 31 3 44 4 l24 1 -1 250 c-1 138 -4 257 -5 265 -20 83
-52 134 -95 152 -34 13 -100 18 -132 10z"/>
<path d="M4788 1156 c-58 -18 -125 -79 -140 -129 -16 -57 -16 -59 10 -68 12
-5 22 -5 22 -1 0 4 24 7 52 7 43 0 53 3 50 16 -4 29 47 69 88 69 57 0 91 -50
82 -125 -4 -32 -4 -32 -60 -34 -100 -2 -165 -24 -211 -70 -75 -75 -76 -227 -3
-299 70 -68 198 -73 254 -9 16 18 44 16 33 -3 -9 -14 20 -29 60 -30 100 -1 96
-2 90 22 -3 13 -8 37 -10 53 -2 17 -4 30 -5 30 0 0 -2 101 -3 225 l-3 225 -29
43 c-38 58 -92 85 -175 87 -36 1 -82 -3 -102 -9z m163 -380 c7 -142 -9 -173
-90 -183 -42 -5 -51 -2 -70 18 -19 20 -22 33 -19 75 6 73 48 108 133 110 39 2
45 -1 46 -20z"/>
<path d="M6760 1144 c-62 -28 -97 -66 -128 -133 -22 -50 -25 -70 -26 -181 -1
-133 9 -186 50 -250 87 -138 308 -150 411 -22 49 61 67 130 66 252 0 92 -6
160 -13 168 -1 1 -3 5 -4 10 -6 21 -37 80 -53 97 -32 36 -77 62 -128 74 -67
16 -118 11 -175 -15z m186 -139 c17 -19 31 -40 32 -47 1 -7 5 -32 10 -55 6
-28 6 -45 -1 -52 -8 -8 -7 -11 2 -11 7 0 10 -4 7 -8 -3 -5 -6 -36 -7 -70 -4
-111 -47 -172 -121 -172 -47 0 -93 44 -109 103 -25 95 -9 267 31 314 42 52
109 51 156 -2z"/>
<path d="M7806 1155 c-22 -8 -43 -20 -47 -27 -5 -7 -9 -9 -9 -5 0 12 -50 -40
-50 -53 0 -5 -5 -10 -11 -10 -5 0 -8 -4 -4 -9 3 -5 2 -12 -3 -15 -15 -9 -13
-100 2 -136 21 -51 71 -89 176 -135 85 -37 118 -62 125 -96 12 -52 -31 -89
-95 -83 -54 6 -79 24 -91 65 l-12 37 -69 -1 -69 -2 6 -35 c21 -111 118 -183
245 -181 145 2 230 78 230 205 -1 87 -59 147 -203 207 -100 41 -141 91 -105
127 7 7 8 12 3 12 -28 0 40 31 70 32 39 1 70 -23 80 -65 4 -16 13 -24 23 -22
9 1 27 -1 39 -6 13 -5 25 -4 28 1 3 6 15 6 30 0 13 -5 26 -6 28 -2 14 27 -18
115 -56 150 -57 54 -178 75 -261 47z"/>
<path d="M8373 1147 c-45 -23 -93 -66 -93 -83 0 -7 -5 -14 -10 -16 -6 -2 -12
-31 -14 -65 -4 -79 24 -130 92 -170 26 -16 49 -28 52 -28 3 -1 32 -14 65 -29
83 -38 106 -62 103 -104 -3 -47 -35 -70 -90 -66 -53 5 -90 31 -100 71 -8 30
-8 30 -70 28 -82 -3 -77 -1 -72 -32 20 -110 114 -183 237 -183 78 0 142 21
184 60 73 69 75 201 2 266 -31 28 -115 74 -134 74 -8 0 -15 5 -15 10 0 6 -6
10 -13 10 -18 0 -72 27 -85 43 -23 28 -22 68 3 93 46 46 125 29 142 -30 5 -17
14 -32 21 -32 7 -1 13 -2 15 -4 7 -5 70 -4 73 2 3 4 11 5 19 2 42 -16 21 81
-28 133 -65 69 -199 92 -284 50z"/>
<path d="M8973 1143 c-106 -51 -158 -160 -153 -323 1 -30 1 -62 1 -70 0 -32
22 -117 39 -150 34 -66 122 -127 185 -128 17 0 35 -2 40 -3 6 -2 30 0 54 4
146 25 219 144 216 353 -2 101 -17 171 -51 225 -67 108 -213 148 -331 92z
m172 -117 c23 -15 38 -39 53 -86 3 -8 6 -58 8 -110 6 -158 -25 -226 -107 -237
-63 -9 -112 38 -127 121 -12 63 -5 204 11 245 34 85 96 110 162 67z"/>
<path d="M9691 1145 c-23 -14 -49 -31 -57 -40 -20 -20 -19 -20 -19 17 l0 32
-67 2 c-67 1 -68 0 -68 -25 -1 -39 -1 -592 -1 -622 1 -17 7 -26 19 -27 62 -5
116 -2 121 7 4 5 6 114 5 243 0 187 2 238 14 259 38 67 136 72 163 7 9 -22 13
-100 13 -274 1 -253 1 -252 40 -245 4 1 28 2 52 3 25 0 47 5 50 9 8 13 7 458
-1 505 -8 46 -31 102 -54 128 -41 47 -145 57 -210 21z"/>
</g>
</svg>
