<svg width="55" height="71" viewBox="0 0 55 71" fill="none" xmlns="http://www.w3.org/2000/svg">
<path d="M19.3359 43.5488V13.3438H24.6973V43.5488C24.6973 46.3613 24.209 48.7344 23.2324 50.668C22.2559 52.6016 20.8984 54.0762 19.1602 55.0918C17.4414 56.0879 15.459 56.5859 13.2129 56.5859C11.0059 56.5859 9.0332 56.1367 7.29492 55.2383C5.55664 54.3398 4.18945 52.9727 3.19336 51.1367C2.2168 49.3008 1.72852 46.9863 1.72852 44.1934H7.11914C7.11914 45.9902 7.38281 47.4648 7.91016 48.6172C8.45703 49.7695 9.18945 50.6191 10.1074 51.166C11.0254 51.7129 12.0605 51.9863 13.2129 51.9863C14.3848 51.9863 15.4297 51.6738 16.3477 51.0488C17.2656 50.4043 17.9883 49.457 18.5156 48.207C19.0625 46.9375 19.3359 45.3848 19.3359 43.5488Z" fill="black"/>
<path d="M19.3359 13.3438V12.3438H18.3359V13.3438H19.3359ZM24.6973 13.3438H25.6973V12.3438H24.6973V13.3438ZM19.1602 55.0918L19.6616 55.957L19.6646 55.9552L19.1602 55.0918ZM3.19336 51.1367L2.31046 51.6063L2.31439 51.6136L3.19336 51.1367ZM1.72852 44.1934V43.1934H0.728516V44.1934H1.72852ZM7.11914 44.1934H8.11914V43.1934H7.11914V44.1934ZM7.91016 48.6172L7.00076 49.0334L7.00673 49.0459L7.91016 48.6172ZM16.3477 51.0488L16.9104 51.8754L16.9164 51.8714L16.9223 51.8672L16.3477 51.0488ZM18.5156 48.207L17.5972 47.8114L17.5943 47.8183L18.5156 48.207ZM20.3359 43.5488V13.3438H18.3359V43.5488H20.3359ZM19.3359 14.3438H24.6973V12.3438H19.3359V14.3438ZM23.6973 13.3438V43.5488H25.6973V13.3438H23.6973ZM23.6973 43.5488C23.6973 46.2498 23.2279 48.4587 22.3398 50.2172L24.125 51.1188C25.1901 49.01 25.6973 46.4728 25.6973 43.5488H23.6973ZM22.3398 50.2172C21.4433 51.9923 20.2148 53.3174 18.6557 54.2284L19.6646 55.9552C21.5821 54.8349 23.0685 53.2108 24.125 51.1188L22.3398 50.2172ZM18.6587 54.2266C17.1114 55.1233 15.3063 55.5859 13.2129 55.5859V57.5859C15.6116 57.5859 17.7714 57.0525 19.6616 55.957L18.6587 54.2266ZM13.2129 55.5859C11.145 55.5859 9.33314 55.1661 7.75407 54.3499L6.83577 56.1266C8.73327 57.1074 10.8667 57.5859 13.2129 57.5859V55.5859ZM7.75407 54.3499C6.20602 53.5498 4.97965 52.3322 4.07232 50.6598L2.31439 51.6136C3.39926 53.6132 4.90726 55.1299 6.83577 56.1266L7.75407 54.3499ZM4.07623 50.6671C3.19841 49.0168 2.72852 46.8764 2.72852 44.1934H0.728516C0.728516 47.0963 1.23519 49.5848 2.31049 51.6063L4.07623 50.6671ZM1.72852 45.1934H7.11914V43.1934H1.72852V45.1934ZM6.11914 44.1934C6.11914 46.078 6.39422 47.7077 7.00085 49.0333L8.81946 48.2011C8.37141 47.222 8.11914 45.9024 8.11914 44.1934H6.11914ZM7.00673 49.0459C7.62185 50.3421 8.47661 51.3585 9.59562 52.0251L10.6192 50.3069C9.90229 49.8798 9.29221 49.197 8.81358 48.1884L7.00673 49.0459ZM9.59562 52.0251C10.6805 52.6714 11.895 52.9863 13.2129 52.9863V50.9863C12.2261 50.9863 11.3703 50.7544 10.6192 50.3069L9.59562 52.0251ZM13.2129 52.9863C14.5738 52.9863 15.8171 52.6198 16.9104 51.8754L15.7849 50.2222C15.0423 50.7278 14.1957 50.9863 13.2129 50.9863V52.9863ZM16.9223 51.8672C18.0233 51.0942 18.8521 49.9822 19.437 48.5957L17.5943 47.8183C17.1245 48.9318 16.5079 49.7144 15.773 50.2304L16.9223 51.8672ZM19.434 48.6027C20.0493 47.1744 20.3359 45.4785 20.3359 43.5488H18.3359C18.3359 45.2911 18.0757 46.7006 17.5972 47.8114L19.434 48.6027Z" fill="black"/>
<path d="M25.8125 42.6738V39.6562C25.8125 37.1953 26.125 35.0371 26.75 33.1816C27.375 31.3066 28.2441 29.7441 29.3574 28.4941C30.4707 27.2441 31.7695 26.3066 33.2539 25.6816C34.7383 25.0371 36.3301 24.7148 38.0293 24.7148C39.7676 24.7148 41.3789 25.0371 42.8633 25.6816C44.3477 26.3066 45.6465 27.2441 46.7598 28.4941C47.8926 29.7441 48.7715 31.3066 49.3965 33.1816C50.0215 35.0371 50.334 37.1953 50.334 39.6562V42.6738C50.334 45.1348 50.0215 47.3027 49.3965 49.1777C48.7715 51.0332 47.9023 52.5859 46.7891 53.8359C45.6758 55.0859 44.377 56.0234 42.8926 56.6484C41.4082 57.2734 39.8066 57.5859 38.0879 57.5859C36.3691 57.5859 34.7676 57.2734 33.2832 56.6484C31.7988 56.0234 30.4902 55.0859 29.3574 53.8359C28.2441 52.5859 27.375 51.0332 26.75 49.1777C26.125 47.3027 25.8125 45.1348 25.8125 42.6738ZM30.998 39.6562V42.6738C30.998 44.4121 31.1738 45.9355 31.5254 47.2441C31.877 48.5527 32.375 49.6465 33.0195 50.5254C33.6641 51.4043 34.416 52.0684 35.2754 52.5176C36.1348 52.9473 37.0723 53.1621 38.0879 53.1621C39.2598 53.1621 40.2852 52.9473 41.1641 52.5176C42.0625 52.0684 42.8047 51.4043 43.3906 50.5254C43.9766 49.6465 44.416 48.5527 44.709 47.2441C45.002 45.9355 45.1484 44.4121 45.1484 42.6738V39.6562C45.1484 37.918 44.9727 36.4043 44.6211 35.1152C44.2695 33.8066 43.7715 32.7129 43.127 31.834C42.4824 30.9355 41.7207 30.2715 40.8418 29.8418C39.9824 29.3926 39.0449 29.168 38.0293 29.168C37.0332 29.168 36.1055 29.3926 35.2461 29.8418C34.3867 30.2715 33.6348 30.9355 32.9902 31.834C32.3652 32.7129 31.877 33.8066 31.5254 35.1152C31.1738 36.4043 30.998 37.918 30.998 39.6562Z" fill="black"/>
<path d="M26.75 33.1816L27.6977 33.5009L27.6987 33.4979L26.75 33.1816ZM33.2539 25.6816L33.642 26.6033L33.6522 26.5989L33.2539 25.6816ZM42.8633 25.6816L42.465 26.599L42.4752 26.6033L42.8633 25.6816ZM46.7598 28.4941L46.013 29.1593L46.0188 29.1657L46.7598 28.4941ZM49.3965 33.1816L48.4478 33.4979L48.4488 33.5009L49.3965 33.1816ZM49.3965 49.1777L50.3442 49.497L50.3452 49.494L49.3965 49.1777ZM29.3574 53.8359L28.6106 54.501L28.6164 54.5075L29.3574 53.8359ZM26.75 49.1777L25.8013 49.494L25.8023 49.497L26.75 49.1777ZM35.2754 52.5176L34.8121 53.4038L34.8201 53.408L34.8282 53.412L35.2754 52.5176ZM41.1641 52.5176L41.6033 53.416L41.6113 53.412L41.1641 52.5176ZM44.6211 35.1152L43.6553 35.3747L43.6563 35.3784L44.6211 35.1152ZM43.127 31.834L42.3144 32.4169L42.3205 32.4253L43.127 31.834ZM40.8418 29.8418L40.3785 30.728L40.3905 30.7343L40.4026 30.7402L40.8418 29.8418ZM35.2461 29.8418L35.6933 30.7362L35.7014 30.7322L35.7093 30.728L35.2461 29.8418ZM32.9902 31.834L32.1777 31.2511L32.1753 31.2545L32.9902 31.834ZM31.5254 35.1152L32.4902 35.3784L32.4911 35.3747L31.5254 35.1152ZM26.8125 42.6738V39.6562H24.8125V42.6738H26.8125ZM26.8125 39.6562C26.8125 37.2772 27.1149 35.2309 27.6977 33.5009L25.8023 32.8624C25.1351 34.8433 24.8125 37.1134 24.8125 39.6562H26.8125ZM27.6987 33.4979C28.2884 31.7287 29.096 30.2912 30.1042 29.1592L28.6107 27.8291C27.3923 29.197 26.4616 30.8846 25.8013 32.8654L27.6987 33.4979ZM30.1042 29.1592C31.1225 28.0159 32.3002 27.1682 33.642 26.6033L32.8658 24.76C31.2389 25.4451 29.8189 26.4724 28.6107 27.8291L30.1042 29.1592ZM33.6522 26.5989C35.0046 26.0117 36.4601 25.7148 38.0293 25.7148V23.7148C36.2 23.7148 34.4719 24.0626 32.8556 24.7644L33.6522 26.5989ZM38.0293 25.7148C39.6408 25.7148 41.1154 26.0129 42.465 26.5989L43.2616 24.7644C41.6424 24.0613 39.8943 23.7148 38.0293 23.7148V25.7148ZM42.4752 26.6033C43.817 27.1682 44.9947 28.0159 46.013 29.1592L47.5065 27.8291C46.2983 26.4724 44.8783 25.4451 43.2513 24.76L42.4752 26.6033ZM46.0188 29.1657C47.0439 30.2968 47.8592 31.7321 48.4478 33.4979L50.3452 32.8654C49.6838 30.8812 48.7413 29.1915 47.5008 27.8226L46.0188 29.1657ZM48.4488 33.5009C49.0316 35.2309 49.334 37.2772 49.334 39.6562H51.334C51.334 37.1134 51.0114 34.8433 50.3442 32.8624L48.4488 33.5009ZM49.334 39.6562V42.6738H51.334V39.6562H49.334ZM49.334 42.6738C49.334 45.0525 49.0317 47.1099 48.4478 48.8615L50.3452 49.494C51.0113 47.4955 51.334 45.217 51.334 42.6738H49.334ZM48.4488 48.8585C47.8596 50.6077 47.0521 52.037 46.0423 53.1708L47.5358 54.501C48.7526 53.1349 49.6834 51.4587 50.3442 49.497L48.4488 48.8585ZM46.0423 53.1708C45.024 54.3142 43.8463 55.1618 42.5045 55.7268L43.2806 57.5701C44.9076 56.885 46.3276 55.8577 47.5358 54.501L46.0423 53.1708ZM42.5045 55.7268C41.1511 56.2967 39.6824 56.5859 38.0879 56.5859V58.5859C39.9309 58.5859 41.6653 58.2502 43.2806 57.5701L42.5045 55.7268ZM38.0879 56.5859C36.4934 56.5859 35.0247 56.2967 33.6713 55.7268L32.8951 57.5701C34.5104 58.2502 36.2449 58.5859 38.0879 58.5859V56.5859ZM33.6713 55.7268C32.3277 55.1611 31.138 54.3115 30.0984 53.1644L28.6164 54.5075C29.8425 55.8603 31.2699 56.8858 32.8951 57.5701L33.6713 55.7268ZM30.1042 53.1708C29.0944 52.037 28.2869 50.6077 27.6977 48.8585L25.8023 49.497C26.4631 51.4587 27.3939 53.1349 28.6107 54.501L30.1042 53.1708ZM27.6987 48.8615C27.1148 47.1099 26.8125 45.0525 26.8125 42.6738H24.8125C24.8125 45.217 25.1352 47.4955 25.8013 49.494L27.6987 48.8615ZM29.998 39.6562V42.6738H31.998V39.6562H29.998ZM29.998 42.6738C29.998 44.4764 30.18 46.0905 30.5596 47.5036L32.4911 46.9847C32.1677 45.7806 31.998 44.3479 31.998 42.6738H29.998ZM30.5596 47.5036C30.9358 48.9037 31.48 50.117 32.2131 51.1168L33.8259 49.934C33.27 49.1759 32.8181 48.2018 32.4911 46.9847L30.5596 47.5036ZM32.2131 51.1168C32.9367 52.1035 33.8014 52.8755 34.8121 53.4038L35.7386 51.6314C35.0306 51.2613 34.3914 50.7051 33.8259 49.934L32.2131 51.1168ZM34.8282 53.412C35.8343 53.9151 36.9261 54.1621 38.0879 54.1621V52.1621C37.2184 52.1621 36.4352 51.9795 35.7226 51.6231L34.8282 53.412ZM38.0879 54.1621C39.3822 54.1621 40.5632 53.9245 41.6033 53.416L40.7249 51.6192C40.0072 51.9701 39.1373 52.1621 38.0879 52.1621V54.1621ZM41.6113 53.412C42.6735 52.8809 43.5454 52.096 44.2227 51.0801L42.5586 49.9707C42.064 50.7126 41.4515 51.2558 40.7168 51.6231L41.6113 53.412ZM44.2227 51.0801C44.8924 50.0755 45.3719 48.8602 45.6848 47.4626L43.7331 47.0257C43.4601 48.2453 43.0607 49.2175 42.5586 49.9707L44.2227 51.0801ZM45.6848 47.4626C45.9978 46.0648 46.1484 44.4652 46.1484 42.6738H44.1484C44.1484 44.359 44.0061 45.8063 43.7331 47.0257L45.6848 47.4626ZM46.1484 42.6738V39.6562H44.1484V42.6738H46.1484ZM46.1484 39.6562C46.1484 37.8542 45.9666 36.2482 45.5859 34.8521L43.6563 35.3784C43.9787 36.5604 44.1484 37.9818 44.1484 39.6562H46.1484ZM45.5868 34.8558C45.2107 33.4557 44.6665 32.2424 43.9334 31.2426L42.3205 32.4253C42.8765 33.1834 43.3284 34.1576 43.6553 35.3747L45.5868 34.8558ZM43.9395 31.2511C43.2113 30.236 42.327 29.4548 41.281 28.9434L40.4026 30.7402C41.1144 31.0882 41.7536 31.6351 42.3144 32.4169L43.9395 31.2511ZM41.3051 28.9556C40.2959 28.428 39.1984 28.168 38.0293 28.168V30.168C38.8915 30.168 39.669 30.3571 40.3785 30.728L41.3051 28.9556ZM38.0293 28.168C36.8764 28.168 35.7892 28.4295 34.7828 28.9556L35.7093 30.728C36.4218 30.3556 37.19 30.168 38.0293 30.168V28.168ZM34.7989 28.9474C33.7737 29.46 32.9025 30.2407 32.1777 31.2511L33.8028 32.4169C34.367 31.6304 34.9997 31.083 35.6933 30.7362L34.7989 28.9474ZM32.1753 31.2545C31.4663 32.2515 30.9345 33.4606 30.5596 34.8558L32.4911 35.3747C32.8195 34.1527 33.2642 33.1743 33.8052 32.4135L32.1753 31.2545ZM30.5606 34.8521C30.1799 36.2482 29.998 37.8542 29.998 39.6562H31.998C31.998 37.9818 32.1678 36.5604 32.4902 35.3784L30.5606 34.8521Z" fill="black"/>
<path d="M19 34C24.4141 34.8676 27.0412 39.7285 32 41" stroke="white" stroke-width="3" stroke-linecap="round"/>
<path d="M28 30C30.0823 30.4958 31.0928 33.2734 33 34" stroke="white" stroke-width="3" stroke-linecap="round"/>
<path d="M3.57812 66.3398V62.3125H4.29297V66.3398C4.29297 66.7148 4.22786 67.0312 4.09766 67.2891C3.96745 67.5469 3.78646 67.7435 3.55469 67.8789C3.32552 68.0117 3.0612 68.0781 2.76172 68.0781C2.46745 68.0781 2.20443 68.0182 1.97266 67.8984C1.74089 67.7786 1.55859 67.5964 1.42578 67.3516C1.29557 67.1068 1.23047 66.7982 1.23047 66.4258H1.94922C1.94922 66.6654 1.98438 66.862 2.05469 67.0156C2.1276 67.1693 2.22526 67.2826 2.34766 67.3555C2.47005 67.4284 2.60807 67.4648 2.76172 67.4648C2.91797 67.4648 3.05729 67.4232 3.17969 67.3398C3.30208 67.2539 3.39844 67.1276 3.46875 66.9609C3.54167 66.7917 3.57812 66.5846 3.57812 66.3398ZM5.24219 66.0898V65.6875C5.24219 65.3594 5.28385 65.0716 5.36719 64.8242C5.45052 64.5742 5.56641 64.3659 5.71484 64.1992C5.86328 64.0326 6.03646 63.9076 6.23438 63.8242C6.43229 63.7383 6.64453 63.6953 6.87109 63.6953C7.10286 63.6953 7.31771 63.7383 7.51562 63.8242C7.71354 63.9076 7.88672 64.0326 8.03516 64.1992C8.1862 64.3659 8.30339 64.5742 8.38672 64.8242C8.47005 65.0716 8.51172 65.3594 8.51172 65.6875V66.0898C8.51172 66.418 8.47005 66.707 8.38672 66.957C8.30339 67.2044 8.1875 67.4115 8.03906 67.5781C7.89062 67.7448 7.71745 67.8698 7.51953 67.9531C7.32161 68.0365 7.10807 68.0781 6.87891 68.0781C6.64974 68.0781 6.4362 68.0365 6.23828 67.9531C6.04036 67.8698 5.86589 67.7448 5.71484 67.5781C5.56641 67.4115 5.45052 67.2044 5.36719 66.957C5.28385 66.707 5.24219 66.418 5.24219 66.0898ZM5.93359 65.6875V66.0898C5.93359 66.3216 5.95703 66.5247 6.00391 66.6992C6.05078 66.8737 6.11719 67.0195 6.20312 67.1367C6.28906 67.2539 6.38932 67.3424 6.50391 67.4023C6.61849 67.4596 6.74349 67.4883 6.87891 67.4883C7.03516 67.4883 7.17188 67.4596 7.28906 67.4023C7.40885 67.3424 7.50781 67.2539 7.58594 67.1367C7.66406 67.0195 7.72266 66.8737 7.76172 66.6992C7.80078 66.5247 7.82031 66.3216 7.82031 66.0898V65.6875C7.82031 65.4557 7.79688 65.2539 7.75 65.082C7.70312 64.9076 7.63672 64.7617 7.55078 64.6445C7.46484 64.5247 7.36328 64.4362 7.24609 64.3789C7.13151 64.319 7.00651 64.2891 6.87109 64.2891C6.73828 64.2891 6.61458 64.319 6.5 64.3789C6.38542 64.4362 6.28516 64.5247 6.19922 64.6445C6.11589 64.7617 6.05078 64.9076 6.00391 65.082C5.95703 65.2539 5.93359 65.4557 5.93359 65.6875ZM11.4727 67.2773V64.9844C11.4727 64.8177 11.4466 64.6836 11.3945 64.582C11.3451 64.4805 11.2695 64.4062 11.168 64.3594C11.069 64.3125 10.944 64.2891 10.793 64.2891C10.6471 64.2891 10.5208 64.319 10.4141 64.3789C10.3099 64.4388 10.2292 64.5182 10.1719 64.6172C10.1172 64.7161 10.0898 64.8255 10.0898 64.9453H9.39844C9.39844 64.7943 9.43099 64.6445 9.49609 64.4961C9.5638 64.3477 9.66016 64.2135 9.78516 64.0938C9.91016 63.9714 10.0599 63.875 10.2344 63.8047C10.4115 63.7318 10.6094 63.6953 10.8281 63.6953C11.0885 63.6953 11.319 63.7383 11.5195 63.8242C11.7201 63.9076 11.8776 64.0443 11.9922 64.2344C12.1068 64.4245 12.1641 64.6771 12.1641 64.9922V67.0781C12.1641 67.2188 12.1745 67.3685 12.1953 67.5273C12.2188 67.6862 12.2513 67.8229 12.293 67.9375V68H11.5781C11.5443 67.9167 11.5182 67.806 11.5 67.668C11.4818 67.5273 11.4727 67.3971 11.4727 67.2773ZM11.582 65.4375L11.5898 65.9453H11.1094C10.9453 65.9453 10.7956 65.9635 10.6602 66C10.5273 66.0365 10.4128 66.0898 10.3164 66.1602C10.2201 66.2279 10.1458 66.3125 10.0938 66.4141C10.0443 66.5156 10.0195 66.6315 10.0195 66.7617C10.0195 66.931 10.043 67.0664 10.0898 67.168C10.1367 67.2669 10.207 67.3385 10.3008 67.3828C10.3945 67.4271 10.513 67.4492 10.6562 67.4492C10.8307 67.4492 10.9844 67.4089 11.1172 67.3281C11.25 67.2474 11.3529 67.1497 11.4258 67.0352C11.5013 66.9206 11.5365 66.8138 11.5312 66.7148L11.6836 67.0391C11.6732 67.1406 11.6393 67.2513 11.582 67.3711C11.5273 67.4883 11.4505 67.6016 11.3516 67.7109C11.2526 67.8177 11.1354 67.9062 11 67.9766C10.8672 68.0443 10.7174 68.0781 10.5508 68.0781C10.306 68.0781 10.0911 68.0312 9.90625 67.9375C9.72396 67.8438 9.58203 67.7057 9.48047 67.5234C9.37891 67.3411 9.32812 67.1159 9.32812 66.8477C9.32812 66.6445 9.36328 66.457 9.43359 66.2852C9.50391 66.1133 9.60807 65.9648 9.74609 65.8398C9.88411 65.7122 10.0573 65.6133 10.2656 65.543C10.4766 65.4727 10.7201 65.4375 10.9961 65.4375H11.582ZM13.9297 64.6758V68H13.2383V63.7734H13.8906L13.9297 64.6758ZM13.7617 65.7266L13.4805 65.7148C13.4779 65.4258 13.5104 65.1589 13.5781 64.9141C13.6484 64.6667 13.7474 64.4518 13.875 64.2695C14.0052 64.0872 14.1602 63.9466 14.3398 63.8477C14.5195 63.7461 14.7188 63.6953 14.9375 63.6953C15.1094 63.6953 15.2656 63.724 15.4062 63.7812C15.5469 63.8359 15.6667 63.9245 15.7656 64.0469C15.8646 64.1693 15.9401 64.3281 15.9922 64.5234C16.0469 64.7161 16.0742 64.9518 16.0742 65.2305V68H15.3828V65.2227C15.3828 65.0013 15.3581 64.8242 15.3086 64.6914C15.2617 64.556 15.1888 64.4583 15.0898 64.3984C14.9935 64.3359 14.8711 64.3047 14.7227 64.3047C14.5872 64.3047 14.4609 64.3424 14.3438 64.418C14.2266 64.4935 14.1237 64.5977 14.0352 64.7305C13.9492 64.8633 13.8815 65.0156 13.832 65.1875C13.7852 65.3568 13.7617 65.5365 13.7617 65.7266ZM17.8047 64.6758V68H17.1133V63.7734H17.7656L17.8047 64.6758ZM17.6367 65.7266L17.3555 65.7148C17.3529 65.4258 17.3854 65.1589 17.4531 64.9141C17.5234 64.6667 17.6224 64.4518 17.75 64.2695C17.8802 64.0872 18.0352 63.9466 18.2148 63.8477C18.3945 63.7461 18.5938 63.6953 18.8125 63.6953C18.9844 63.6953 19.1406 63.724 19.2812 63.7812C19.4219 63.8359 19.5417 63.9245 19.6406 64.0469C19.7396 64.1693 19.8151 64.3281 19.8672 64.5234C19.9219 64.7161 19.9492 64.9518 19.9492 65.2305V68H19.2578V65.2227C19.2578 65.0013 19.2331 64.8242 19.1836 64.6914C19.1367 64.556 19.0638 64.4583 18.9648 64.3984C18.8685 64.3359 18.7461 64.3047 18.5977 64.3047C18.4622 64.3047 18.3359 64.3424 18.2188 64.418C18.1016 64.4935 17.9987 64.5977 17.9102 64.7305C17.8242 64.8633 17.7565 65.0156 17.707 65.1875C17.6602 65.3568 17.6367 65.5365 17.6367 65.7266ZM23.0586 67.2773V64.9844C23.0586 64.8177 23.0326 64.6836 22.9805 64.582C22.931 64.4805 22.8555 64.4062 22.7539 64.3594C22.6549 64.3125 22.5299 64.2891 22.3789 64.2891C22.2331 64.2891 22.1068 64.319 22 64.3789C21.8958 64.4388 21.8151 64.5182 21.7578 64.6172C21.7031 64.7161 21.6758 64.8255 21.6758 64.9453H20.9844C20.9844 64.7943 21.0169 64.6445 21.082 64.4961C21.1497 64.3477 21.2461 64.2135 21.3711 64.0938C21.4961 63.9714 21.6458 63.875 21.8203 63.8047C21.9974 63.7318 22.1953 63.6953 22.4141 63.6953C22.6745 63.6953 22.9049 63.7383 23.1055 63.8242C23.306 63.9076 23.4635 64.0443 23.5781 64.2344C23.6927 64.4245 23.75 64.6771 23.75 64.9922V67.0781C23.75 67.2188 23.7604 67.3685 23.7812 67.5273C23.8047 67.6862 23.8372 67.8229 23.8789 67.9375V68H23.1641C23.1302 67.9167 23.1042 67.806 23.0859 67.668C23.0677 67.5273 23.0586 67.3971 23.0586 67.2773ZM23.168 65.4375L23.1758 65.9453H22.6953C22.5312 65.9453 22.3815 65.9635 22.2461 66C22.1133 66.0365 21.9987 66.0898 21.9023 66.1602C21.806 66.2279 21.7318 66.3125 21.6797 66.4141C21.6302 66.5156 21.6055 66.6315 21.6055 66.7617C21.6055 66.931 21.6289 67.0664 21.6758 67.168C21.7227 67.2669 21.793 67.3385 21.8867 67.3828C21.9805 67.4271 22.099 67.4492 22.2422 67.4492C22.4167 67.4492 22.5703 67.4089 22.7031 67.3281C22.8359 67.2474 22.9388 67.1497 23.0117 67.0352C23.0872 66.9206 23.1224 66.8138 23.1172 66.7148L23.2695 67.0391C23.2591 67.1406 23.2253 67.2513 23.168 67.3711C23.1133 67.4883 23.0365 67.6016 22.9375 67.7109C22.8385 67.8177 22.7214 67.9062 22.5859 67.9766C22.4531 68.0443 22.3034 68.0781 22.1367 68.0781C21.8919 68.0781 21.6771 68.0312 21.4922 67.9375C21.3099 67.8438 21.168 67.7057 21.0664 67.5234C20.9648 67.3411 20.9141 67.1159 20.9141 66.8477C20.9141 66.6445 20.9492 66.457 21.0195 66.2852C21.0898 66.1133 21.194 65.9648 21.332 65.8398C21.4701 65.7122 21.6432 65.6133 21.8516 65.543C22.0625 65.4727 22.306 65.4375 22.582 65.4375H23.168ZM30.4531 64.6641V65.6523C30.4531 66.0534 30.4089 66.4062 30.3203 66.7109C30.2344 67.013 30.1081 67.2656 29.9414 67.4688C29.7747 67.6719 29.5742 67.8242 29.3398 67.9258C29.1055 68.0273 28.8411 68.0781 28.5469 68.0781C28.263 68.0781 28.0039 68.0273 27.7695 67.9258C27.5352 67.8242 27.3333 67.6719 27.1641 67.4688C26.9948 67.2656 26.8633 67.013 26.7695 66.7109C26.6784 66.4062 26.6328 66.0534 26.6328 65.6523V64.6641C26.6328 64.263 26.6784 63.9115 26.7695 63.6094C26.8607 63.3047 26.9909 63.0508 27.1602 62.8477C27.3294 62.6445 27.5312 62.4922 27.7656 62.3906C28 62.2865 28.2591 62.2344 28.543 62.2344C28.8372 62.2344 29.1016 62.2865 29.3359 62.3906C29.5729 62.4922 29.7734 62.6445 29.9375 62.8477C30.1042 63.0508 30.2318 63.3047 30.3203 63.6094C30.4089 63.9115 30.4531 64.263 30.4531 64.6641ZM29.7422 65.6523V64.6562C29.7422 64.3438 29.7161 64.0755 29.6641 63.8516C29.612 63.625 29.5352 63.4401 29.4336 63.2969C29.332 63.1536 29.207 63.0482 29.0586 62.9805C28.9102 62.9102 28.7383 62.875 28.543 62.875C28.3581 62.875 28.1914 62.9102 28.043 62.9805C27.8971 63.0482 27.7721 63.1536 27.668 63.2969C27.5638 63.4401 27.4831 63.625 27.4258 63.8516C27.3711 64.0755 27.3438 64.3438 27.3438 64.6562V65.6523C27.3438 65.9674 27.3711 66.2383 27.4258 66.4648C27.4831 66.6888 27.5638 66.8737 27.668 67.0195C27.7747 67.1628 27.9023 67.2695 28.0508 67.3398C28.1992 67.4076 28.3646 67.4414 28.5469 67.4414C28.7422 67.4414 28.9141 67.4076 29.0625 67.3398C29.2135 67.2695 29.3385 67.1628 29.4375 67.0195C29.5391 66.8737 29.6146 66.6888 29.6641 66.4648C29.7161 66.2383 29.7422 65.9674 29.7422 65.6523ZM32.2148 62V68H31.5273V62H32.2148ZM33.1641 66.0898V65.6875C33.1641 65.3594 33.2057 65.0716 33.2891 64.8242C33.3724 64.5742 33.4883 64.3659 33.6367 64.1992C33.7852 64.0326 33.9583 63.9076 34.1562 63.8242C34.3542 63.7383 34.5664 63.6953 34.793 63.6953C35.0247 63.6953 35.2396 63.7383 35.4375 63.8242C35.6354 63.9076 35.8086 64.0326 35.957 64.1992C36.1081 64.3659 36.2253 64.5742 36.3086 64.8242C36.3919 65.0716 36.4336 65.3594 36.4336 65.6875V66.0898C36.4336 66.418 36.3919 66.707 36.3086 66.957C36.2253 67.2044 36.1094 67.4115 35.9609 67.5781C35.8125 67.7448 35.6393 67.8698 35.4414 67.9531C35.2435 68.0365 35.0299 68.0781 34.8008 68.0781C34.5716 68.0781 34.3581 68.0365 34.1602 67.9531C33.9622 67.8698 33.7878 67.7448 33.6367 67.5781C33.4883 67.4115 33.3724 67.2044 33.2891 66.957C33.2057 66.707 33.1641 66.418 33.1641 66.0898ZM33.8555 65.6875V66.0898C33.8555 66.3216 33.8789 66.5247 33.9258 66.6992C33.9727 66.8737 34.0391 67.0195 34.125 67.1367C34.2109 67.2539 34.3112 67.3424 34.4258 67.4023C34.5404 67.4596 34.6654 67.4883 34.8008 67.4883C34.957 67.4883 35.0938 67.4596 35.2109 67.4023C35.3307 67.3424 35.4297 67.2539 35.5078 67.1367C35.5859 67.0195 35.6445 66.8737 35.6836 66.6992C35.7227 66.5247 35.7422 66.3216 35.7422 66.0898V65.6875C35.7422 65.4557 35.7188 65.2539 35.6719 65.082C35.625 64.9076 35.5586 64.7617 35.4727 64.6445C35.3867 64.5247 35.2852 64.4362 35.168 64.3789C35.0534 64.319 34.9284 64.2891 34.793 64.2891C34.6602 64.2891 34.5365 64.319 34.4219 64.3789C34.3073 64.4362 34.207 64.5247 34.1211 64.6445C34.0378 64.7617 33.9727 64.9076 33.9258 65.082C33.8789 65.2539 33.8555 65.4557 33.8555 65.6875ZM38.3203 68H37.6289V63.3281C37.6289 63.0234 37.6771 62.7669 37.7734 62.5586C37.8724 62.3477 38.0117 62.1888 38.1914 62.082C38.3737 61.9727 38.5898 61.918 38.8398 61.918C38.9102 61.918 38.9805 61.9232 39.0508 61.9336C39.1237 61.944 39.1927 61.9596 39.2578 61.9805L39.2266 62.5703C39.1849 62.5573 39.1341 62.5482 39.0742 62.543C39.0169 62.5378 38.9622 62.5352 38.9102 62.5352C38.7852 62.5352 38.6784 62.5664 38.5898 62.6289C38.5013 62.6888 38.4336 62.7773 38.3867 62.8945C38.3424 63.0117 38.3203 63.1562 38.3203 63.3281V68ZM39.0391 63.7734V64.3281H37.0781V63.7734H39.0391ZM41.9062 66.918C41.9062 66.8112 41.8802 66.7174 41.8281 66.6367C41.776 66.556 41.6901 66.4779 41.5703 66.4023C41.4531 66.3268 41.2943 66.2461 41.0938 66.1602C40.8984 66.0794 40.7227 66 40.5664 65.9219C40.4128 65.8411 40.2826 65.7539 40.1758 65.6602C40.069 65.5664 39.987 65.4583 39.9297 65.3359C39.875 65.2109 39.8477 65.0638 39.8477 64.8945C39.8477 64.7253 39.8789 64.569 39.9414 64.4258C40.0065 64.2799 40.0977 64.1523 40.2148 64.043C40.332 63.9336 40.4727 63.849 40.6367 63.7891C40.8008 63.7266 40.9844 63.6953 41.1875 63.6953C41.4766 63.6953 41.7227 63.7513 41.9258 63.8633C42.1289 63.9753 42.2839 64.1289 42.3906 64.3242C42.5 64.5169 42.5547 64.7344 42.5547 64.9766H41.8672C41.8672 64.8594 41.8411 64.7487 41.7891 64.6445C41.737 64.5404 41.6602 64.4557 41.5586 64.3906C41.457 64.3229 41.3333 64.2891 41.1875 64.2891C41.0339 64.2891 40.9089 64.3164 40.8125 64.3711C40.7161 64.4258 40.6458 64.4974 40.6016 64.5859C40.5599 64.6719 40.5391 64.7669 40.5391 64.8711C40.5391 64.9492 40.5495 65.0169 40.5703 65.0742C40.5938 65.1289 40.6328 65.181 40.6875 65.2305C40.7422 65.2773 40.8164 65.3268 40.9102 65.3789C41.0065 65.4284 41.1289 65.4857 41.2773 65.5508C41.5638 65.6628 41.8047 65.776 42 65.8906C42.1953 66.0052 42.3438 66.1393 42.4453 66.293C42.5469 66.4466 42.5977 66.6367 42.5977 66.8633C42.5977 67.0482 42.5638 67.2161 42.4961 67.3672C42.431 67.5156 42.3372 67.6432 42.2148 67.75C42.0924 67.8568 41.9453 67.9388 41.7734 67.9961C41.6042 68.0508 41.4141 68.0781 41.2031 68.0781C40.8854 68.0781 40.6159 68.0156 40.3945 67.8906C40.1758 67.763 40.0091 67.5977 39.8945 67.3945C39.7826 67.1888 39.7266 66.9688 39.7266 66.7344H40.418C40.4258 66.9323 40.4701 67.0859 40.5508 67.1953C40.6341 67.3047 40.7344 67.3802 40.8516 67.4219C40.9688 67.4635 41.0859 67.4844 41.2031 67.4844C41.3568 67.4844 41.4857 67.4622 41.5898 67.418C41.694 67.3711 41.7721 67.3047 41.8242 67.2188C41.8789 67.1328 41.9062 67.0326 41.9062 66.918ZM45.5547 66.918C45.5547 66.8112 45.5286 66.7174 45.4766 66.6367C45.4245 66.556 45.3385 66.4779 45.2188 66.4023C45.1016 66.3268 44.9427 66.2461 44.7422 66.1602C44.5469 66.0794 44.3711 66 44.2148 65.9219C44.0612 65.8411 43.931 65.7539 43.8242 65.6602C43.7174 65.5664 43.6354 65.4583 43.5781 65.3359C43.5234 65.2109 43.4961 65.0638 43.4961 64.8945C43.4961 64.7253 43.5273 64.569 43.5898 64.4258C43.6549 64.2799 43.7461 64.1523 43.8633 64.043C43.9805 63.9336 44.1211 63.849 44.2852 63.7891C44.4492 63.7266 44.6328 63.6953 44.8359 63.6953C45.125 63.6953 45.3711 63.7513 45.5742 63.8633C45.7773 63.9753 45.9323 64.1289 46.0391 64.3242C46.1484 64.5169 46.2031 64.7344 46.2031 64.9766H45.5156C45.5156 64.8594 45.4896 64.7487 45.4375 64.6445C45.3854 64.5404 45.3086 64.4557 45.207 64.3906C45.1055 64.3229 44.9818 64.2891 44.8359 64.2891C44.6823 64.2891 44.5573 64.3164 44.4609 64.3711C44.3646 64.4258 44.2943 64.4974 44.25 64.5859C44.2083 64.6719 44.1875 64.7669 44.1875 64.8711C44.1875 64.9492 44.1979 65.0169 44.2188 65.0742C44.2422 65.1289 44.2812 65.181 44.3359 65.2305C44.3906 65.2773 44.4648 65.3268 44.5586 65.3789C44.6549 65.4284 44.7773 65.4857 44.9258 65.5508C45.2122 65.6628 45.4531 65.776 45.6484 65.8906C45.8438 66.0052 45.9922 66.1393 46.0938 66.293C46.1953 66.4466 46.2461 66.6367 46.2461 66.8633C46.2461 67.0482 46.2122 67.2161 46.1445 67.3672C46.0794 67.5156 45.9857 67.6432 45.8633 67.75C45.7409 67.8568 45.5938 67.9388 45.4219 67.9961C45.2526 68.0508 45.0625 68.0781 44.8516 68.0781C44.5339 68.0781 44.2643 68.0156 44.043 67.8906C43.8242 67.763 43.6576 67.5977 43.543 67.3945C43.431 67.1888 43.375 66.9688 43.375 66.7344H44.0664C44.0742 66.9323 44.1185 67.0859 44.1992 67.1953C44.2826 67.3047 44.3828 67.3802 44.5 67.4219C44.6172 67.4635 44.7344 67.4844 44.8516 67.4844C45.0052 67.4844 45.1341 67.4622 45.2383 67.418C45.3424 67.3711 45.4206 67.3047 45.4727 67.2188C45.5273 67.1328 45.5547 67.0326 45.5547 66.918ZM47.0078 66.0898V65.6875C47.0078 65.3594 47.0495 65.0716 47.1328 64.8242C47.2161 64.5742 47.332 64.3659 47.4805 64.1992C47.6289 64.0326 47.8021 63.9076 48 63.8242C48.1979 63.7383 48.4102 63.6953 48.6367 63.6953C48.8685 63.6953 49.0833 63.7383 49.2812 63.8242C49.4792 63.9076 49.6523 64.0326 49.8008 64.1992C49.9518 64.3659 50.069 64.5742 50.1523 64.8242C50.2357 65.0716 50.2773 65.3594 50.2773 65.6875V66.0898C50.2773 66.418 50.2357 66.707 50.1523 66.957C50.069 67.2044 49.9531 67.4115 49.8047 67.5781C49.6562 67.7448 49.4831 67.8698 49.2852 67.9531C49.0872 68.0365 48.8737 68.0781 48.6445 68.0781C48.4154 68.0781 48.2018 68.0365 48.0039 67.9531C47.806 67.8698 47.6315 67.7448 47.4805 67.5781C47.332 67.4115 47.2161 67.2044 47.1328 66.957C47.0495 66.707 47.0078 66.418 47.0078 66.0898ZM47.6992 65.6875V66.0898C47.6992 66.3216 47.7227 66.5247 47.7695 66.6992C47.8164 66.8737 47.8828 67.0195 47.9688 67.1367C48.0547 67.2539 48.1549 67.3424 48.2695 67.4023C48.3841 67.4596 48.5091 67.4883 48.6445 67.4883C48.8008 67.4883 48.9375 67.4596 49.0547 67.4023C49.1745 67.3424 49.2734 67.2539 49.3516 67.1367C49.4297 67.0195 49.4883 66.8737 49.5273 66.6992C49.5664 66.5247 49.5859 66.3216 49.5859 66.0898V65.6875C49.5859 65.4557 49.5625 65.2539 49.5156 65.082C49.4688 64.9076 49.4023 64.7617 49.3164 64.6445C49.2305 64.5247 49.1289 64.4362 49.0117 64.3789C48.8971 64.319 48.7721 64.2891 48.6367 64.2891C48.5039 64.2891 48.3802 64.319 48.2656 64.3789C48.151 64.4362 48.0508 64.5247 47.9648 64.6445C47.8815 64.7617 47.8164 64.9076 47.7695 65.082C47.7227 65.2539 47.6992 65.4557 47.6992 65.6875ZM51.8594 64.6758V68H51.168V63.7734H51.8203L51.8594 64.6758ZM51.6914 65.7266L51.4102 65.7148C51.4076 65.4258 51.4401 65.1589 51.5078 64.9141C51.5781 64.6667 51.6771 64.4518 51.8047 64.2695C51.9349 64.0872 52.0898 63.9466 52.2695 63.8477C52.4492 63.7461 52.6484 63.6953 52.8672 63.6953C53.0391 63.6953 53.1953 63.724 53.3359 63.7812C53.4766 63.8359 53.5964 63.9245 53.6953 64.0469C53.7943 64.1693 53.8698 64.3281 53.9219 64.5234C53.9766 64.7161 54.0039 64.9518 54.0039 65.2305V68H53.3125V65.2227C53.3125 65.0013 53.2878 64.8242 53.2383 64.6914C53.1914 64.556 53.1185 64.4583 53.0195 64.3984C52.9232 64.3359 52.8008 64.3047 52.6523 64.3047C52.5169 64.3047 52.3906 64.3424 52.2734 64.418C52.1562 64.4935 52.0534 64.5977 51.9648 64.7305C51.8789 64.8633 51.8112 65.0156 51.7617 65.1875C51.7148 65.3568 51.6914 65.5365 51.6914 65.7266Z" fill="black"/>
</svg>
