<svg width="55" height="71" viewBox="0 0 55 71" fill="none" xmlns="http://www.w3.org/2000/svg">
<path d="M19.3359 43.5488V13.3438H24.6973V43.5488C24.6973 46.3613 24.209 48.7344 23.2324 50.668C22.2559 52.6016 20.8984 54.0762 19.1602 55.0918C17.4414 56.0879 15.459 56.5859 13.2129 56.5859C11.0059 56.5859 9.0332 56.1367 7.29492 55.2383C5.55664 54.3398 4.18945 52.9727 3.19336 51.1367C2.2168 49.3008 1.72852 46.9863 1.72852 44.1934H7.11914C7.11914 45.9902 7.38281 47.4648 7.91016 48.6172C8.45703 49.7695 9.18945 50.6191 10.1074 51.166C11.0254 51.7129 12.0605 51.9863 13.2129 51.9863C14.3848 51.9863 15.4297 51.6738 16.3477 51.0488C17.2656 50.4043 17.9883 49.457 18.5156 48.207C19.0625 46.9375 19.3359 45.3848 19.3359 43.5488Z" fill="url(#paint0_linear_290_247)"/>
<path d="M19.3359 13.3438V12.3438H18.3359V13.3438H19.3359ZM24.6973 13.3438H25.6973V12.3438H24.6973V13.3438ZM19.1602 55.0918L19.6616 55.957L19.6646 55.9552L19.1602 55.0918ZM3.19336 51.1367L2.31046 51.6063L2.31439 51.6136L3.19336 51.1367ZM1.72852 44.1934V43.1934H0.728516V44.1934H1.72852ZM7.11914 44.1934H8.11914V43.1934H7.11914V44.1934ZM7.91016 48.6172L7.00076 49.0334L7.00673 49.0459L7.91016 48.6172ZM16.3477 51.0488L16.9104 51.8754L16.9164 51.8714L16.9223 51.8672L16.3477 51.0488ZM18.5156 48.207L17.5972 47.8114L17.5943 47.8183L18.5156 48.207ZM20.3359 43.5488V13.3438H18.3359V43.5488H20.3359ZM19.3359 14.3438H24.6973V12.3438H19.3359V14.3438ZM23.6973 13.3438V43.5488H25.6973V13.3438H23.6973ZM23.6973 43.5488C23.6973 46.2498 23.2279 48.4587 22.3398 50.2172L24.125 51.1188C25.1901 49.01 25.6973 46.4728 25.6973 43.5488H23.6973ZM22.3398 50.2172C21.4433 51.9923 20.2148 53.3174 18.6557 54.2284L19.6646 55.9552C21.5821 54.8349 23.0685 53.2108 24.125 51.1188L22.3398 50.2172ZM18.6587 54.2266C17.1114 55.1233 15.3063 55.5859 13.2129 55.5859V57.5859C15.6116 57.5859 17.7714 57.0525 19.6616 55.957L18.6587 54.2266ZM13.2129 55.5859C11.145 55.5859 9.33314 55.1661 7.75407 54.3499L6.83577 56.1266C8.73327 57.1074 10.8667 57.5859 13.2129 57.5859V55.5859ZM7.75407 54.3499C6.20602 53.5498 4.97965 52.3322 4.07232 50.6598L2.31439 51.6136C3.39926 53.6132 4.90726 55.1299 6.83577 56.1266L7.75407 54.3499ZM4.07623 50.6671C3.1984 49.0168 2.72852 46.8764 2.72852 44.1934H0.728516C0.728516 47.0963 1.23519 49.5848 2.31049 51.6063L4.07623 50.6671ZM1.72852 45.1934H7.11914V43.1934H1.72852V45.1934ZM6.11914 44.1934C6.11914 46.078 6.39422 47.7077 7.00085 49.0333L8.81946 48.2011C8.37141 47.222 8.11914 45.9024 8.11914 44.1934H6.11914ZM7.00673 49.0459C7.62185 50.3421 8.47661 51.3585 9.59562 52.0251L10.6192 50.3069C9.90229 49.8798 9.29221 49.197 8.81358 48.1884L7.00673 49.0459ZM9.59562 52.0251C10.6805 52.6714 11.895 52.9863 13.2129 52.9863V50.9863C12.2261 50.9863 11.3703 50.7544 10.6192 50.3069L9.59562 52.0251ZM13.2129 52.9863C14.5738 52.9863 15.8171 52.6198 16.9104 51.8754L15.7849 50.2222C15.0423 50.7278 14.1957 50.9863 13.2129 50.9863V52.9863ZM16.9223 51.8672C18.0233 51.0942 18.8521 49.9822 19.437 48.5957L17.5943 47.8183C17.1245 48.9318 16.5079 49.7144 15.773 50.2304L16.9223 51.8672ZM19.434 48.6027C20.0493 47.1744 20.3359 45.4785 20.3359 43.5488H18.3359C18.3359 45.2911 18.0757 46.7006 17.5972 47.8114L19.434 48.6027Z" fill="url(#paint1_linear_290_247)"/>
<path d="M25.8125 42.6738V39.6562C25.8125 37.1953 26.125 35.0371 26.75 33.1816C27.375 31.3066 28.2441 29.7441 29.3574 28.4941C30.4707 27.2441 31.7695 26.3066 33.2539 25.6816C34.7383 25.0371 36.3301 24.7148 38.0293 24.7148C39.7676 24.7148 41.3789 25.0371 42.8633 25.6816C44.3477 26.3066 45.6465 27.2441 46.7598 28.4941C47.8926 29.7441 48.7715 31.3066 49.3965 33.1816C50.0215 35.0371 50.334 37.1953 50.334 39.6562V42.6738C50.334 45.1348 50.0215 47.3027 49.3965 49.1777C48.7715 51.0332 47.9023 52.5859 46.7891 53.8359C45.6758 55.0859 44.377 56.0234 42.8926 56.6484C41.4082 57.2734 39.8066 57.5859 38.0879 57.5859C36.3691 57.5859 34.7676 57.2734 33.2832 56.6484C31.7988 56.0234 30.4902 55.0859 29.3574 53.8359C28.2441 52.5859 27.375 51.0332 26.75 49.1777C26.125 47.3027 25.8125 45.1348 25.8125 42.6738ZM30.998 39.6562V42.6738C30.998 44.4121 31.1738 45.9355 31.5254 47.2441C31.877 48.5527 32.375 49.6465 33.0195 50.5254C33.6641 51.4043 34.416 52.0684 35.2754 52.5176C36.1348 52.9473 37.0723 53.1621 38.0879 53.1621C39.2598 53.1621 40.2852 52.9473 41.1641 52.5176C42.0625 52.0684 42.8047 51.4043 43.3906 50.5254C43.9766 49.6465 44.416 48.5527 44.709 47.2441C45.002 45.9355 45.1484 44.4121 45.1484 42.6738V39.6562C45.1484 37.918 44.9727 36.4043 44.6211 35.1152C44.2695 33.8066 43.7715 32.7129 43.127 31.834C42.4824 30.9355 41.7207 30.2715 40.8418 29.8418C39.9824 29.3926 39.0449 29.168 38.0293 29.168C37.0332 29.168 36.1055 29.3926 35.2461 29.8418C34.3867 30.2715 33.6348 30.9355 32.9902 31.834C32.3652 32.7129 31.877 33.8066 31.5254 35.1152C31.1738 36.4043 30.998 37.918 30.998 39.6562Z" fill="url(#paint2_linear_290_247)"/>
<path d="M26.75 33.1816L27.6977 33.5009L27.6987 33.4979L26.75 33.1816ZM33.2539 25.6816L33.642 26.6033L33.6522 26.5989L33.2539 25.6816ZM42.8633 25.6816L42.465 26.599L42.4752 26.6033L42.8633 25.6816ZM46.7598 28.4941L46.013 29.1593L46.0188 29.1657L46.7598 28.4941ZM49.3965 33.1816L48.4478 33.4979L48.4488 33.5009L49.3965 33.1816ZM49.3965 49.1777L50.3442 49.497L50.3452 49.494L49.3965 49.1777ZM29.3574 53.8359L28.6106 54.5011L28.6164 54.5075L29.3574 53.8359ZM26.75 49.1777L25.8013 49.494L25.8023 49.497L26.75 49.1777ZM35.2754 52.5176L34.8121 53.4038L34.8201 53.408L34.8282 53.412L35.2754 52.5176ZM41.1641 52.5176L41.6033 53.416L41.6113 53.412L41.1641 52.5176ZM44.6211 35.1152L43.6553 35.3747L43.6563 35.3784L44.6211 35.1152ZM43.127 31.834L42.3144 32.4169L42.3205 32.4253L43.127 31.834ZM40.8418 29.8418L40.3785 30.728L40.3905 30.7343L40.4026 30.7402L40.8418 29.8418ZM35.2461 29.8418L35.6933 30.7362L35.7014 30.7322L35.7093 30.728L35.2461 29.8418ZM32.9902 31.834L32.1777 31.2511L32.1753 31.2545L32.9902 31.834ZM31.5254 35.1152L32.4902 35.3784L32.4911 35.3747L31.5254 35.1152ZM26.8125 42.6738V39.6562H24.8125V42.6738H26.8125ZM26.8125 39.6562C26.8125 37.2772 27.1149 35.2309 27.6977 33.5009L25.8023 32.8624C25.1351 34.8433 24.8125 37.1134 24.8125 39.6562H26.8125ZM27.6987 33.4979C28.2884 31.7287 29.096 30.2912 30.1042 29.1592L28.6107 27.8291C27.3923 29.197 26.4616 30.8846 25.8013 32.8654L27.6987 33.4979ZM30.1042 29.1592C31.1225 28.0159 32.3002 27.1682 33.642 26.6033L32.8658 24.76C31.2389 25.4451 29.8189 26.4724 28.6107 27.8291L30.1042 29.1592ZM33.6522 26.5989C35.0046 26.0117 36.4601 25.7148 38.0293 25.7148V23.7148C36.2 23.7148 34.4719 24.0626 32.8556 24.7644L33.6522 26.5989ZM38.0293 25.7148C39.6408 25.7148 41.1154 26.0129 42.465 26.5989L43.2616 24.7644C41.6424 24.0613 39.8943 23.7148 38.0293 23.7148V25.7148ZM42.4752 26.6033C43.817 27.1682 44.9947 28.0159 46.013 29.1592L47.5065 27.8291C46.2983 26.4724 44.8783 25.4451 43.2513 24.76L42.4752 26.6033ZM46.0188 29.1657C47.0439 30.2968 47.8592 31.7321 48.4478 33.4979L50.3452 32.8654C49.6838 30.8812 48.7413 29.1915 47.5008 27.8226L46.0188 29.1657ZM48.4488 33.5009C49.0316 35.2309 49.334 37.2772 49.334 39.6562H51.334C51.334 37.1134 51.0114 34.8433 50.3442 32.8624L48.4488 33.5009ZM49.334 39.6562V42.6738H51.334V39.6562H49.334ZM49.334 42.6738C49.334 45.0525 49.0317 47.1099 48.4478 48.8615L50.3452 49.494C51.0113 47.4955 51.334 45.217 51.334 42.6738H49.334ZM48.4488 48.8585C47.8596 50.6077 47.0521 52.037 46.0423 53.1708L47.5358 54.501C48.7526 53.1349 49.6834 51.4587 50.3442 49.497L48.4488 48.8585ZM46.0423 53.1708C45.024 54.3142 43.8463 55.1618 42.5045 55.7268L43.2806 57.5701C44.9076 56.885 46.3276 55.8577 47.5358 54.501L46.0423 53.1708ZM42.5045 55.7268C41.1511 56.2967 39.6824 56.5859 38.0879 56.5859V58.5859C39.9309 58.5859 41.6653 58.2502 43.2806 57.5701L42.5045 55.7268ZM38.0879 56.5859C36.4934 56.5859 35.0247 56.2967 33.6713 55.7268L32.8951 57.5701C34.5104 58.2502 36.2449 58.5859 38.0879 58.5859V56.5859ZM33.6713 55.7268C32.3277 55.1611 31.138 54.3115 30.0984 53.1644L28.6164 54.5075C29.8425 55.8603 31.2699 56.8858 32.8951 57.5701L33.6713 55.7268ZM30.1042 53.1708C29.0944 52.037 28.2869 50.6077 27.6977 48.8585L25.8023 49.497C26.4631 51.4587 27.3939 53.1349 28.6107 54.501L30.1042 53.1708ZM27.6987 48.8615C27.1148 47.1099 26.8125 45.0525 26.8125 42.6738H24.8125C24.8125 45.217 25.1352 47.4955 25.8013 49.494L27.6987 48.8615ZM29.998 39.6562V42.6738H31.998V39.6562H29.998ZM29.998 42.6738C29.998 44.4764 30.18 46.0905 30.5596 47.5036L32.4911 46.9847C32.1677 45.7806 31.998 44.3479 31.998 42.6738H29.998ZM30.5596 47.5036C30.9358 48.9037 31.48 50.117 32.2131 51.1168L33.8259 49.934C33.27 49.1759 32.8181 48.2018 32.4911 46.9847L30.5596 47.5036ZM32.2131 51.1168C32.9367 52.1035 33.8014 52.8755 34.8121 53.4038L35.7386 51.6314C35.0306 51.2613 34.3914 50.7051 33.8259 49.934L32.2131 51.1168ZM34.8282 53.412C35.8343 53.9151 36.9261 54.1621 38.0879 54.1621V52.1621C37.2184 52.1621 36.4352 51.9795 35.7226 51.6232L34.8282 53.412ZM38.0879 54.1621C39.3822 54.1621 40.5632 53.9245 41.6033 53.416L40.7249 51.6192C40.0072 51.9701 39.1373 52.1621 38.0879 52.1621V54.1621ZM41.6113 53.412C42.6735 52.8809 43.5454 52.096 44.2227 51.0801L42.5586 49.9707C42.064 50.7126 41.4515 51.2558 40.7168 51.6232L41.6113 53.412ZM44.2227 51.0801C44.8924 50.0755 45.3719 48.8602 45.6848 47.4626L43.7331 47.0257C43.4601 48.2453 43.0607 49.2175 42.5586 49.9707L44.2227 51.0801ZM45.6848 47.4626C45.9978 46.0648 46.1484 44.4652 46.1484 42.6738H44.1484C44.1484 44.359 44.0061 45.8063 43.7331 47.0257L45.6848 47.4626ZM46.1484 42.6738V39.6562H44.1484V42.6738H46.1484ZM46.1484 39.6562C46.1484 37.8542 45.9666 36.2482 45.5859 34.8521L43.6563 35.3784C43.9787 36.5604 44.1484 37.9817 44.1484 39.6562H46.1484ZM45.5868 34.8558C45.2107 33.4557 44.6665 32.2424 43.9334 31.2426L42.3205 32.4253C42.8765 33.1834 43.3284 34.1576 43.6553 35.3747L45.5868 34.8558ZM43.9395 31.2511C43.2113 30.236 42.327 29.4548 41.281 28.9434L40.4026 30.7402C41.1144 31.0882 41.7536 31.6351 42.3144 32.4169L43.9395 31.2511ZM41.3051 28.9556C40.2959 28.428 39.1984 28.168 38.0293 28.168V30.168C38.8915 30.168 39.669 30.3571 40.3785 30.728L41.3051 28.9556ZM38.0293 28.168C36.8764 28.168 35.7892 28.4295 34.7828 28.9556L35.7093 30.728C36.4218 30.3556 37.19 30.168 38.0293 30.168V28.168ZM34.7989 28.9474C33.7737 29.46 32.9025 30.2407 32.1777 31.2511L33.8028 32.4169C34.367 31.6304 34.9997 31.083 35.6933 30.7362L34.7989 28.9474ZM32.1753 31.2545C31.4663 32.2515 30.9345 33.4606 30.5596 34.8558L32.4911 35.3747C32.8195 34.1527 33.2642 33.1743 33.8052 32.4135L32.1753 31.2545ZM30.5606 34.8521C30.1799 36.2482 29.998 37.8542 29.998 39.6562H31.998C31.998 37.9817 32.1678 36.5604 32.4902 35.3784L30.5606 34.8521Z" fill="url(#paint3_linear_290_247)"/>
<path d="M19 34C24.4141 34.8676 27.0412 39.7285 32 41" stroke="#171716" stroke-width="3" stroke-linecap="round"/>
<path d="M28 30C30.0823 30.4958 31.0928 33.2734 33 34" stroke="#171716" stroke-width="3" stroke-linecap="round"/>
<path d="M3.44531 66.2891V62.3125H4.39062V66.2891C4.39062 66.6667 4.32161 66.9896 4.18359 67.2578C4.04557 67.5234 3.85677 67.7266 3.61719 67.8672C3.3776 68.0078 3.10547 68.0781 2.80078 68.0781C2.49349 68.0781 2.21875 68.0169 1.97656 67.8945C1.73698 67.7695 1.54818 67.5807 1.41016 67.3281C1.27214 67.0755 1.20312 66.7552 1.20312 66.3672H2.15625C2.15625 66.5885 2.18359 66.7669 2.23828 66.9023C2.29297 67.0352 2.36849 67.1328 2.46484 67.1953C2.5638 67.2552 2.67578 67.2852 2.80078 67.2852C2.92839 67.2852 3.04036 67.2474 3.13672 67.1719C3.23307 67.0938 3.30859 66.9805 3.36328 66.832C3.41797 66.6836 3.44531 66.5026 3.44531 66.2891ZM5.22266 66.0586V65.7188C5.22266 65.3906 5.26302 65.1003 5.34375 64.8477C5.42448 64.5951 5.53906 64.3841 5.6875 64.2148C5.83854 64.043 6.01562 63.9141 6.21875 63.8281C6.42188 63.7396 6.64583 63.6953 6.89062 63.6953C7.14062 63.6953 7.36719 63.7396 7.57031 63.8281C7.77604 63.9141 7.95312 64.043 8.10156 64.2148C8.2526 64.3841 8.36849 64.5951 8.44922 64.8477C8.52995 65.1003 8.57031 65.3906 8.57031 65.7188V66.0586C8.57031 66.3867 8.52995 66.6771 8.44922 66.9297C8.36849 67.1823 8.2526 67.3945 8.10156 67.5664C7.95312 67.7357 7.77734 67.8633 7.57422 67.9492C7.37109 68.0352 7.14583 68.0781 6.89844 68.0781C6.65365 68.0781 6.42839 68.0352 6.22266 67.9492C6.01953 67.8633 5.84245 67.7357 5.69141 67.5664C5.54036 67.3945 5.42448 67.1823 5.34375 66.9297C5.26302 66.6771 5.22266 66.3867 5.22266 66.0586ZM6.13281 65.7188V66.0586C6.13281 66.2695 6.15104 66.4544 6.1875 66.6133C6.22396 66.7695 6.27604 66.8997 6.34375 67.0039C6.41146 67.1081 6.49219 67.1862 6.58594 67.2383C6.67969 67.2904 6.78385 67.3164 6.89844 67.3164C7.02604 67.3164 7.13672 67.2904 7.23047 67.2383C7.32682 67.1862 7.40625 67.1081 7.46875 67.0039C7.53385 66.8997 7.58203 66.7695 7.61328 66.6133C7.64453 66.4544 7.66016 66.2695 7.66016 66.0586V65.7188C7.66016 65.5104 7.64193 65.3281 7.60547 65.1719C7.56901 65.013 7.51693 64.8815 7.44922 64.7773C7.38151 64.6706 7.29948 64.5911 7.20312 64.5391C7.10938 64.487 7.00521 64.4609 6.89062 64.4609C6.77865 64.4609 6.67578 64.487 6.58203 64.5391C6.49089 64.5911 6.41146 64.6706 6.34375 64.7773C6.27604 64.8815 6.22396 65.013 6.1875 65.1719C6.15104 65.3281 6.13281 65.5104 6.13281 65.7188ZM11.3164 67.1406V65.0352C11.3164 64.8893 11.2956 64.7721 11.2539 64.6836C11.2148 64.5951 11.1562 64.5312 11.0781 64.4922C11.0026 64.4505 10.9076 64.4297 10.793 64.4297C10.6732 64.4297 10.5716 64.4544 10.4883 64.5039C10.4076 64.5534 10.3464 64.6211 10.3047 64.707C10.263 64.7904 10.2422 64.8867 10.2422 64.9961H9.33203C9.33203 64.8268 9.36589 64.6641 9.43359 64.5078C9.50391 64.3516 9.60417 64.2122 9.73438 64.0898C9.86458 63.9674 10.0221 63.8711 10.207 63.8008C10.3919 63.7305 10.5977 63.6953 10.8242 63.6953C11.0951 63.6953 11.3359 63.7409 11.5469 63.832C11.7578 63.9206 11.9232 64.0651 12.043 64.2656C12.1654 64.4635 12.2266 64.724 12.2266 65.0469V67.0195C12.2266 67.2148 12.2383 67.3893 12.2617 67.543C12.2878 67.694 12.3229 67.8255 12.3672 67.9375V68H11.4414C11.3997 67.8984 11.3685 67.7682 11.3477 67.6094C11.3268 67.4505 11.3164 67.2943 11.3164 67.1406ZM11.4375 65.4258L11.4414 66.0156H11.0039C10.8737 66.0156 10.7565 66.0339 10.6523 66.0703C10.5482 66.1042 10.4596 66.1536 10.3867 66.2188C10.3164 66.2812 10.2617 66.3581 10.2227 66.4492C10.1862 66.5404 10.168 66.6406 10.168 66.75C10.168 66.8828 10.1862 66.9909 10.2227 67.0742C10.2617 67.1576 10.3177 67.2201 10.3906 67.2617C10.4661 67.3008 10.5573 67.3203 10.6641 67.3203C10.8099 67.3203 10.9362 67.2891 11.043 67.2266C11.1523 67.1615 11.2357 67.0833 11.293 66.9922C11.3529 66.901 11.3763 66.8177 11.3633 66.7422L11.5703 67.1211C11.5495 67.2201 11.5104 67.3242 11.4531 67.4336C11.3984 67.543 11.3268 67.6471 11.2383 67.7461C11.1497 67.8451 11.043 67.9258 10.918 67.9883C10.793 68.0482 10.6484 68.0781 10.4844 68.0781C10.2474 68.0781 10.0365 68.0286 9.85156 67.9297C9.66667 67.8307 9.52083 67.6888 9.41406 67.5039C9.3099 67.3164 9.25781 67.0924 9.25781 66.832C9.25781 66.6211 9.29297 66.4297 9.36328 66.2578C9.43359 66.0859 9.53776 65.9388 9.67578 65.8164C9.8138 65.6914 9.98698 65.5951 10.1953 65.5273C10.4062 65.4596 10.6523 65.4258 10.9336 65.4258H11.4375ZM14.0586 64.6758V68H13.1484V63.7734H14.0039L14.0586 64.6758ZM13.8945 65.7344H13.6055C13.6029 65.4297 13.6354 65.1523 13.7031 64.9023C13.7708 64.6523 13.8672 64.4375 13.9922 64.2578C14.1198 64.0781 14.2708 63.9401 14.4453 63.8438C14.6224 63.7448 14.819 63.6953 15.0352 63.6953C15.2018 63.6953 15.3542 63.724 15.4922 63.7812C15.6328 63.8359 15.7526 63.9258 15.8516 64.0508C15.9505 64.1758 16.026 64.3385 16.0781 64.5391C16.1328 64.7396 16.1602 64.9844 16.1602 65.2734V68H15.25V65.2656C15.25 65.0677 15.2279 64.9115 15.1836 64.7969C15.1419 64.6797 15.0794 64.5964 14.9961 64.5469C14.9128 64.4948 14.8073 64.4688 14.6797 64.4688C14.5625 64.4688 14.4544 64.5026 14.3555 64.5703C14.2591 64.6354 14.1758 64.7266 14.1055 64.8438C14.0378 64.9583 13.9857 65.0924 13.9492 65.2461C13.9128 65.3971 13.8945 65.5599 13.8945 65.7344ZM17.9727 64.6758V68H17.0625V63.7734H17.918L17.9727 64.6758ZM17.8086 65.7344H17.5195C17.5169 65.4297 17.5495 65.1523 17.6172 64.9023C17.6849 64.6523 17.7812 64.4375 17.9062 64.2578C18.0339 64.0781 18.1849 63.9401 18.3594 63.8438C18.5365 63.7448 18.7331 63.6953 18.9492 63.6953C19.1159 63.6953 19.2682 63.724 19.4062 63.7812C19.5469 63.8359 19.6667 63.9258 19.7656 64.0508C19.8646 64.1758 19.9401 64.3385 19.9922 64.5391C20.0469 64.7396 20.0742 64.9844 20.0742 65.2734V68H19.1641V65.2656C19.1641 65.0677 19.1419 64.9115 19.0977 64.7969C19.056 64.6797 18.9935 64.5964 18.9102 64.5469C18.8268 64.4948 18.7214 64.4688 18.5938 64.4688C18.4766 64.4688 18.3685 64.5026 18.2695 64.5703C18.1732 64.6354 18.0898 64.7266 18.0195 64.8438C17.9518 64.9583 17.8997 65.0924 17.8633 65.2461C17.8268 65.3971 17.8086 65.5599 17.8086 65.7344ZM22.9492 67.1406V65.0352C22.9492 64.8893 22.9284 64.7721 22.8867 64.6836C22.8477 64.5951 22.7891 64.5312 22.7109 64.4922C22.6354 64.4505 22.5404 64.4297 22.4258 64.4297C22.306 64.4297 22.2044 64.4544 22.1211 64.5039C22.0404 64.5534 21.9792 64.6211 21.9375 64.707C21.8958 64.7904 21.875 64.8867 21.875 64.9961H20.9648C20.9648 64.8268 20.9987 64.6641 21.0664 64.5078C21.1367 64.3516 21.237 64.2122 21.3672 64.0898C21.4974 63.9674 21.6549 63.8711 21.8398 63.8008C22.0247 63.7305 22.2305 63.6953 22.457 63.6953C22.7279 63.6953 22.9688 63.7409 23.1797 63.832C23.3906 63.9206 23.556 64.0651 23.6758 64.2656C23.7982 64.4635 23.8594 64.724 23.8594 65.0469V67.0195C23.8594 67.2148 23.8711 67.3893 23.8945 67.543C23.9206 67.694 23.9557 67.8255 24 67.9375V68H23.0742C23.0326 67.8984 23.0013 67.7682 22.9805 67.6094C22.9596 67.4505 22.9492 67.2943 22.9492 67.1406ZM23.0703 65.4258L23.0742 66.0156H22.6367C22.5065 66.0156 22.3893 66.0339 22.2852 66.0703C22.181 66.1042 22.0924 66.1536 22.0195 66.2188C21.9492 66.2812 21.8945 66.3581 21.8555 66.4492C21.819 66.5404 21.8008 66.6406 21.8008 66.75C21.8008 66.8828 21.819 66.9909 21.8555 67.0742C21.8945 67.1576 21.9505 67.2201 22.0234 67.2617C22.099 67.3008 22.1901 67.3203 22.2969 67.3203C22.4427 67.3203 22.569 67.2891 22.6758 67.2266C22.7852 67.1615 22.8685 67.0833 22.9258 66.9922C22.9857 66.901 23.0091 66.8177 22.9961 66.7422L23.2031 67.1211C23.1823 67.2201 23.1432 67.3242 23.0859 67.4336C23.0312 67.543 22.9596 67.6471 22.8711 67.7461C22.7826 67.8451 22.6758 67.9258 22.5508 67.9883C22.4258 68.0482 22.2812 68.0781 22.1172 68.0781C21.8802 68.0781 21.6693 68.0286 21.4844 67.9297C21.2995 67.8307 21.1536 67.6888 21.0469 67.5039C20.9427 67.3164 20.8906 67.0924 20.8906 66.832C20.8906 66.6211 20.9258 66.4297 20.9961 66.2578C21.0664 66.0859 21.1706 65.9388 21.3086 65.8164C21.4466 65.6914 21.6198 65.5951 21.8281 65.5273C22.0391 65.4596 22.2852 65.4258 22.5664 65.4258H23.0703ZM30.5703 64.6914V65.6602C30.5703 66.0612 30.5234 66.4128 30.4297 66.7148C30.3385 67.0169 30.2057 67.2695 30.0312 67.4727C29.8594 67.6732 29.651 67.8242 29.4062 67.9258C29.1641 68.0273 28.8932 68.0781 28.5938 68.0781C28.2969 68.0781 28.026 68.0273 27.7812 67.9258C27.5391 67.8242 27.3294 67.6732 27.1523 67.4727C26.9779 67.2695 26.8424 67.0169 26.7461 66.7148C26.6523 66.4128 26.6055 66.0612 26.6055 65.6602V64.6914C26.6055 64.2852 26.6523 63.9297 26.7461 63.625C26.8398 63.3177 26.974 63.0612 27.1484 62.8555C27.3255 62.6497 27.5352 62.4948 27.7773 62.3906C28.0221 62.2865 28.2917 62.2344 28.5859 62.2344C28.8854 62.2344 29.1562 62.2865 29.3984 62.3906C29.6432 62.4948 29.8529 62.6497 30.0273 62.8555C30.2018 63.0612 30.3359 63.3177 30.4297 63.625C30.5234 63.9297 30.5703 64.2852 30.5703 64.6914ZM29.6289 65.6602V64.6836C29.6289 64.3945 29.6055 64.1471 29.5586 63.9414C29.5143 63.7331 29.4479 63.5638 29.3594 63.4336C29.2708 63.3008 29.1615 63.2031 29.0312 63.1406C28.9036 63.0755 28.7552 63.043 28.5859 63.043C28.4219 63.043 28.2747 63.0755 28.1445 63.1406C28.0169 63.2031 27.9076 63.3008 27.8164 63.4336C27.7279 63.5638 27.6602 63.7331 27.6133 63.9414C27.569 64.1471 27.5469 64.3945 27.5469 64.6836V65.6602C27.5469 65.944 27.5703 66.1888 27.6172 66.3945C27.6641 66.5977 27.7318 66.7643 27.8203 66.8945C27.9115 67.0221 28.0221 67.1172 28.1523 67.1797C28.2826 67.2422 28.4297 67.2734 28.5938 67.2734C28.7604 67.2734 28.9089 67.2422 29.0391 67.1797C29.1693 67.1172 29.2773 67.0221 29.3633 66.8945C29.4518 66.7643 29.5182 66.5977 29.5625 66.3945C29.6068 66.1888 29.6289 65.944 29.6289 65.6602ZM32.4219 62V68H31.5117V62H32.4219ZM33.2617 66.0586V65.7188C33.2617 65.3906 33.3021 65.1003 33.3828 64.8477C33.4635 64.5951 33.5781 64.3841 33.7266 64.2148C33.8776 64.043 34.0547 63.9141 34.2578 63.8281C34.4609 63.7396 34.6849 63.6953 34.9297 63.6953C35.1797 63.6953 35.4062 63.7396 35.6094 63.8281C35.8151 63.9141 35.9922 64.043 36.1406 64.2148C36.2917 64.3841 36.4076 64.5951 36.4883 64.8477C36.569 65.1003 36.6094 65.3906 36.6094 65.7188V66.0586C36.6094 66.3867 36.569 66.6771 36.4883 66.9297C36.4076 67.1823 36.2917 67.3945 36.1406 67.5664C35.9922 67.7357 35.8164 67.8633 35.6133 67.9492C35.4102 68.0352 35.1849 68.0781 34.9375 68.0781C34.6927 68.0781 34.4674 68.0352 34.2617 67.9492C34.0586 67.8633 33.8815 67.7357 33.7305 67.5664C33.5794 67.3945 33.4635 67.1823 33.3828 66.9297C33.3021 66.6771 33.2617 66.3867 33.2617 66.0586ZM34.1719 65.7188V66.0586C34.1719 66.2695 34.1901 66.4544 34.2266 66.6133C34.263 66.7695 34.3151 66.8997 34.3828 67.0039C34.4505 67.1081 34.5312 67.1862 34.625 67.2383C34.7188 67.2904 34.8229 67.3164 34.9375 67.3164C35.0651 67.3164 35.1758 67.2904 35.2695 67.2383C35.3659 67.1862 35.4453 67.1081 35.5078 67.0039C35.5729 66.8997 35.6211 66.7695 35.6523 66.6133C35.6836 66.4544 35.6992 66.2695 35.6992 66.0586V65.7188C35.6992 65.5104 35.681 65.3281 35.6445 65.1719C35.6081 65.013 35.556 64.8815 35.4883 64.7773C35.4206 64.6706 35.3385 64.5911 35.2422 64.5391C35.1484 64.487 35.0443 64.4609 34.9297 64.4609C34.8177 64.4609 34.7148 64.487 34.6211 64.5391C34.5299 64.5911 34.4505 64.6706 34.3828 64.7773C34.3151 64.8815 34.263 65.013 34.2266 65.1719C34.1901 65.3281 34.1719 65.5104 34.1719 65.7188ZM38.5859 68H37.6758V63.3711C37.6758 63.056 37.7279 62.7917 37.832 62.5781C37.9388 62.362 38.0885 62.1979 38.2812 62.0859C38.4766 61.974 38.707 61.918 38.9727 61.918C39.0534 61.918 39.1328 61.9245 39.2109 61.9375C39.2891 61.9479 39.3633 61.9648 39.4336 61.9883L39.4141 62.7305C39.3776 62.7201 39.332 62.7122 39.2773 62.707C39.2253 62.7018 39.1745 62.6992 39.125 62.6992C39.0104 62.6992 38.9128 62.7253 38.832 62.7773C38.7513 62.8294 38.6901 62.9049 38.6484 63.0039C38.6068 63.1029 38.5859 63.2253 38.5859 63.3711V68ZM39.2734 63.7734V64.4766H37.1445V63.7734H39.2734ZM41.9297 66.8867C41.9297 66.7982 41.9036 66.7201 41.8516 66.6523C41.8021 66.582 41.7214 66.513 41.6094 66.4453C41.4974 66.3776 41.3477 66.3047 41.1602 66.2266C40.9648 66.1458 40.7917 66.0651 40.6406 65.9844C40.4896 65.9036 40.362 65.8151 40.2578 65.7188C40.1536 65.6198 40.0742 65.5065 40.0195 65.3789C39.9648 65.2513 39.9375 65.1029 39.9375 64.9336C39.9375 64.7591 39.9701 64.5977 40.0352 64.4492C40.1003 64.3008 40.194 64.1706 40.3164 64.0586C40.4388 63.944 40.5859 63.8555 40.7578 63.793C40.9297 63.7279 41.1237 63.6953 41.3398 63.6953C41.6445 63.6953 41.9049 63.7513 42.1211 63.8633C42.3398 63.9727 42.5065 64.1263 42.6211 64.3242C42.7383 64.5195 42.7969 64.7448 42.7969 65H41.8867C41.8867 64.8932 41.8672 64.7969 41.8281 64.7109C41.7891 64.6224 41.7292 64.5521 41.6484 64.5C41.5677 64.4453 41.4648 64.418 41.3398 64.418C41.2253 64.418 41.1289 64.4401 41.0508 64.4844C40.9753 64.526 40.918 64.5833 40.8789 64.6562C40.8424 64.7266 40.8242 64.806 40.8242 64.8945C40.8242 64.9596 40.8359 65.0169 40.8594 65.0664C40.8828 65.1159 40.9219 65.1641 40.9766 65.2109C41.0312 65.2552 41.1042 65.3008 41.1953 65.3477C41.2891 65.3945 41.4076 65.4479 41.5508 65.5078C41.8346 65.6172 42.0703 65.7305 42.2578 65.8477C42.4453 65.9648 42.5859 66.1016 42.6797 66.2578C42.7734 66.4141 42.8203 66.6081 42.8203 66.8398C42.8203 67.0273 42.7852 67.1966 42.7148 67.3477C42.6471 67.4987 42.5482 67.6289 42.418 67.7383C42.2904 67.8477 42.1354 67.9323 41.9531 67.9922C41.7734 68.0495 41.5729 68.0781 41.3516 68.0781C41.0208 68.0781 40.7409 68.013 40.5117 67.8828C40.2852 67.75 40.1133 67.5794 39.9961 67.3711C39.8789 67.1628 39.8203 66.9427 39.8203 66.7109H40.6992C40.707 66.8776 40.7422 67.0078 40.8047 67.1016C40.8698 67.1953 40.9518 67.2604 41.0508 67.2969C41.1497 67.3307 41.2526 67.3477 41.3594 67.3477C41.487 67.3477 41.5924 67.3307 41.6758 67.2969C41.7591 67.2604 41.8216 67.207 41.8633 67.1367C41.9076 67.0664 41.9297 66.9831 41.9297 66.8867ZM45.5703 66.8867C45.5703 66.7982 45.5443 66.7201 45.4922 66.6523C45.4427 66.582 45.362 66.513 45.25 66.4453C45.138 66.3776 44.9883 66.3047 44.8008 66.2266C44.6055 66.1458 44.4323 66.0651 44.2812 65.9844C44.1302 65.9036 44.0026 65.8151 43.8984 65.7188C43.7943 65.6198 43.7148 65.5065 43.6602 65.3789C43.6055 65.2513 43.5781 65.1029 43.5781 64.9336C43.5781 64.7591 43.6107 64.5977 43.6758 64.4492C43.7409 64.3008 43.8346 64.1706 43.957 64.0586C44.0794 63.944 44.2266 63.8555 44.3984 63.793C44.5703 63.7279 44.7643 63.6953 44.9805 63.6953C45.2852 63.6953 45.5456 63.7513 45.7617 63.8633C45.9805 63.9727 46.1471 64.1263 46.2617 64.3242C46.3789 64.5195 46.4375 64.7448 46.4375 65H45.5273C45.5273 64.8932 45.5078 64.7969 45.4688 64.7109C45.4297 64.6224 45.3698 64.5521 45.2891 64.5C45.2083 64.4453 45.1055 64.418 44.9805 64.418C44.8659 64.418 44.7695 64.4401 44.6914 64.4844C44.6159 64.526 44.5586 64.5833 44.5195 64.6562C44.4831 64.7266 44.4648 64.806 44.4648 64.8945C44.4648 64.9596 44.4766 65.0169 44.5 65.0664C44.5234 65.1159 44.5625 65.1641 44.6172 65.2109C44.6719 65.2552 44.7448 65.3008 44.8359 65.3477C44.9297 65.3945 45.0482 65.4479 45.1914 65.5078C45.4753 65.6172 45.7109 65.7305 45.8984 65.8477C46.0859 65.9648 46.2266 66.1016 46.3203 66.2578C46.4141 66.4141 46.4609 66.6081 46.4609 66.8398C46.4609 67.0273 46.4258 67.1966 46.3555 67.3477C46.2878 67.4987 46.1888 67.6289 46.0586 67.7383C45.931 67.8477 45.776 67.9323 45.5938 67.9922C45.4141 68.0495 45.2135 68.0781 44.9922 68.0781C44.6615 68.0781 44.3815 68.013 44.1523 67.8828C43.9258 67.75 43.7539 67.5794 43.6367 67.3711C43.5195 67.1628 43.4609 66.9427 43.4609 66.7109H44.3398C44.3477 66.8776 44.3828 67.0078 44.4453 67.1016C44.5104 67.1953 44.5924 67.2604 44.6914 67.2969C44.7904 67.3307 44.8932 67.3477 45 67.3477C45.1276 67.3477 45.2331 67.3307 45.3164 67.2969C45.3997 67.2604 45.4622 67.207 45.5039 67.1367C45.5482 67.0664 45.5703 66.9831 45.5703 66.8867ZM47.1211 66.0586V65.7188C47.1211 65.3906 47.1615 65.1003 47.2422 64.8477C47.3229 64.5951 47.4375 64.3841 47.5859 64.2148C47.737 64.043 47.9141 63.9141 48.1172 63.8281C48.3203 63.7396 48.5443 63.6953 48.7891 63.6953C49.0391 63.6953 49.2656 63.7396 49.4688 63.8281C49.6745 63.9141 49.8516 64.043 50 64.2148C50.151 64.3841 50.2669 64.5951 50.3477 64.8477C50.4284 65.1003 50.4688 65.3906 50.4688 65.7188V66.0586C50.4688 66.3867 50.4284 66.6771 50.3477 66.9297C50.2669 67.1823 50.151 67.3945 50 67.5664C49.8516 67.7357 49.6758 67.8633 49.4727 67.9492C49.2695 68.0352 49.0443 68.0781 48.7969 68.0781C48.5521 68.0781 48.3268 68.0352 48.1211 67.9492C47.918 67.8633 47.7409 67.7357 47.5898 67.5664C47.4388 67.3945 47.3229 67.1823 47.2422 66.9297C47.1615 66.6771 47.1211 66.3867 47.1211 66.0586ZM48.0312 65.7188V66.0586C48.0312 66.2695 48.0495 66.4544 48.0859 66.6133C48.1224 66.7695 48.1745 66.8997 48.2422 67.0039C48.3099 67.1081 48.3906 67.1862 48.4844 67.2383C48.5781 67.2904 48.6823 67.3164 48.7969 67.3164C48.9245 67.3164 49.0352 67.2904 49.1289 67.2383C49.2253 67.1862 49.3047 67.1081 49.3672 67.0039C49.4323 66.8997 49.4805 66.7695 49.5117 66.6133C49.543 66.4544 49.5586 66.2695 49.5586 66.0586V65.7188C49.5586 65.5104 49.5404 65.3281 49.5039 65.1719C49.4674 65.013 49.4154 64.8815 49.3477 64.7773C49.2799 64.6706 49.1979 64.5911 49.1016 64.5391C49.0078 64.487 48.9036 64.4609 48.7891 64.4609C48.6771 64.4609 48.5742 64.487 48.4805 64.5391C48.3893 64.5911 48.3099 64.6706 48.2422 64.7773C48.1745 64.8815 48.1224 65.013 48.0859 65.1719C48.0495 65.3281 48.0312 65.5104 48.0312 65.7188ZM52.1523 64.6758V68H51.2422V63.7734H52.0977L52.1523 64.6758ZM51.9883 65.7344H51.6992C51.6966 65.4297 51.7292 65.1523 51.7969 64.9023C51.8646 64.6523 51.9609 64.4375 52.0859 64.2578C52.2135 64.0781 52.3646 63.9401 52.5391 63.8438C52.7161 63.7448 52.9128 63.6953 53.1289 63.6953C53.2956 63.6953 53.4479 63.724 53.5859 63.7812C53.7266 63.8359 53.8464 63.9258 53.9453 64.0508C54.0443 64.1758 54.1198 64.3385 54.1719 64.5391C54.2266 64.7396 54.2539 64.9844 54.2539 65.2734V68H53.3438V65.2656C53.3438 65.0677 53.3216 64.9115 53.2773 64.7969C53.2357 64.6797 53.1732 64.5964 53.0898 64.5469C53.0065 64.4948 52.901 64.4688 52.7734 64.4688C52.6562 64.4688 52.5482 64.5026 52.4492 64.5703C52.3529 64.6354 52.2695 64.7266 52.1992 64.8438C52.1315 64.9583 52.0794 65.0924 52.043 65.2461C52.0065 65.3971 51.9883 65.5599 51.9883 65.7344Z" fill="white"/>
<defs>
<linearGradient id="paint0_linear_290_247" x1="15" y1="0" x2="15" y2="70" gradientUnits="userSpaceOnUse">
<stop stop-color="white"/>
<stop offset="1" stop-color="#454545"/>
</linearGradient>
<linearGradient id="paint1_linear_290_247" x1="15" y1="0" x2="15" y2="70" gradientUnits="userSpaceOnUse">
<stop stop-color="white"/>
<stop offset="1" stop-color="#454545"/>
</linearGradient>
<linearGradient id="paint2_linear_290_247" x1="38.5" y1="1" x2="38.5" y2="71" gradientUnits="userSpaceOnUse">
<stop stop-color="white"/>
<stop offset="1" stop-color="#454545"/>
</linearGradient>
<linearGradient id="paint3_linear_290_247" x1="38.5" y1="1" x2="38.5" y2="71" gradientUnits="userSpaceOnUse">
<stop stop-color="white"/>
<stop offset="1" stop-color="#454545"/>
</linearGradient>
</defs>
</svg>
