<svg width="158" height="158" viewBox="0 0 158 158" fill="none" xmlns="http://www.w3.org/2000/svg">
<g filter="url(#filter0_i_123_477)">
<rect width="158" height="158" rx="79" fill="url(#paint0_linear_123_477)"/>
<g filter="url(#filter1_d_123_477)">
<rect x="20" y="20" width="118" height="118" rx="59" fill="#252525"/>
<path d="M69.1052 52.7C69.7132 52.4653 70.3052 52.1667 70.8812 51.804C71.4572 51.4307 71.9852 50.9667 72.4652 50.412H73.5212V61.5H72.0332V52.476C71.9052 52.5933 71.7452 52.716 71.5532 52.844C71.3719 52.972 71.1692 53.0947 70.9452 53.212C70.7319 53.3293 70.5025 53.4413 70.2572 53.548C70.0225 53.6547 69.7932 53.7453 69.5692 53.82L69.1052 52.7ZM77.4484 53.116C77.4484 52.636 77.5124 52.2147 77.6404 51.852C77.7684 51.4893 77.9444 51.1853 78.1684 50.94C78.4031 50.684 78.6751 50.492 78.9844 50.364C79.2938 50.236 79.6298 50.172 79.9924 50.172C80.3551 50.172 80.6911 50.236 81.0004 50.364C81.3098 50.492 81.5764 50.684 81.8004 50.94C82.0351 51.1853 82.2164 51.4893 82.3444 51.852C82.4724 52.2147 82.5364 52.636 82.5364 53.116C82.5364 53.596 82.4724 54.0173 82.3444 54.38C82.2164 54.7427 82.0351 55.052 81.8004 55.308C81.5764 55.5533 81.3098 55.74 81.0004 55.868C80.6911 55.996 80.3551 56.06 79.9924 56.06C79.6298 56.06 79.2938 55.996 78.9844 55.868C78.6751 55.74 78.4031 55.5533 78.1684 55.308C77.9444 55.052 77.7684 54.7427 77.6404 54.38C77.5124 54.0173 77.4484 53.596 77.4484 53.116ZM81.2884 53.116C81.2884 52.54 81.1764 52.092 80.9524 51.772C80.7284 51.4413 80.4084 51.276 79.9924 51.276C79.5764 51.276 79.2564 51.4413 79.0324 51.772C78.8084 52.092 78.6964 52.54 78.6964 53.116C78.6964 53.692 78.8084 54.1453 79.0324 54.476C79.2564 54.796 79.5764 54.956 79.9924 54.956C80.4084 54.956 80.7284 54.796 80.9524 54.476C81.1764 54.1453 81.2884 53.692 81.2884 53.116ZM84.4884 58.796C84.4884 58.316 84.5524 57.8947 84.6804 57.532C84.8084 57.1693 84.9844 56.8653 85.2084 56.62C85.4431 56.364 85.7151 56.172 86.0244 56.044C86.3338 55.916 86.6698 55.852 87.0324 55.852C87.3951 55.852 87.7311 55.916 88.0404 56.044C88.3498 56.172 88.6164 56.364 88.8404 56.62C89.0751 56.8653 89.2564 57.1693 89.3844 57.532C89.5124 57.8947 89.5764 58.316 89.5764 58.796C89.5764 59.276 89.5124 59.6973 89.3844 60.06C89.2564 60.4227 89.0751 60.732 88.8404 60.988C88.6164 61.2333 88.3498 61.42 88.0404 61.548C87.7311 61.676 87.3951 61.74 87.0324 61.74C86.6698 61.74 86.3338 61.676 86.0244 61.548C85.7151 61.42 85.4431 61.2333 85.2084 60.988C84.9844 60.732 84.8084 60.4227 84.6804 60.06C84.5524 59.6973 84.4884 59.276 84.4884 58.796ZM88.3284 58.796C88.3284 58.22 88.2164 57.772 87.9924 57.452C87.7684 57.1213 87.4484 56.956 87.0324 56.956C86.6164 56.956 86.2964 57.1213 86.0724 57.452C85.8484 57.772 85.7364 58.22 85.7364 58.796C85.7364 59.372 85.8484 59.8253 86.0724 60.156C86.2964 60.476 86.6164 60.636 87.0324 60.636C87.4484 60.636 87.7684 60.476 87.9924 60.156C88.2164 59.8253 88.3284 59.372 88.3284 58.796ZM87.3684 50.412L81.1124 61.5H79.6564L85.9124 50.412H87.3684Z" fill="url(#paint1_linear_123_477)"/>
<g clip-path="url(#clip0_123_477)">
<g filter="url(#filter2_i_123_477)">
<rect width="50" height="26" transform="translate(54 88.5)" fill="#252525"/>
<path d="M78.4848 100.802C78.4848 102.999 77.9354 104.663 76.8368 105.794C75.7488 106.914 74.1274 107.479 71.9728 107.49L71.9248 106.242C72.5968 106.242 73.1994 106.178 73.7328 106.05C74.2768 105.922 74.7514 105.719 75.1568 105.442C75.5621 105.154 75.8981 104.786 76.1648 104.338C76.4421 103.89 76.6448 103.34 76.7728 102.69C76.4954 102.818 76.1808 102.924 75.8288 103.01C75.4768 103.084 75.1141 103.122 74.7408 103.122C74.1114 103.122 73.5781 103.031 73.1408 102.85C72.7034 102.658 72.3461 102.407 72.0688 102.098C71.7914 101.778 71.5888 101.415 71.4608 101.01C71.3434 100.594 71.2848 100.162 71.2848 99.7138C71.2848 99.3191 71.3541 98.9084 71.4928 98.4818C71.6314 98.0551 71.8394 97.6658 72.1168 97.3138C72.4048 96.9618 72.7674 96.6738 73.2048 96.4498C73.6421 96.2258 74.1594 96.1138 74.7568 96.1138C75.3648 96.1138 75.8981 96.2204 76.3568 96.4338C76.8261 96.6471 77.2154 96.9564 77.5248 97.3618C77.8448 97.7671 78.0848 98.2631 78.2448 98.8498C78.4048 99.4258 78.4848 100.076 78.4848 100.802ZM74.9008 101.906C75.2741 101.906 75.6261 101.874 75.9568 101.81C76.2874 101.735 76.6074 101.628 76.9168 101.49C76.9274 101.372 76.9328 101.26 76.9328 101.154C76.9328 101.036 76.9328 100.919 76.9328 100.802C76.9328 100.343 76.9008 99.9058 76.8368 99.4898C76.7728 99.0631 76.6554 98.6951 76.4848 98.3858C76.3248 98.0658 76.1061 97.8151 75.8288 97.6338C75.5514 97.4418 75.1994 97.3458 74.7728 97.3458C74.4208 97.3458 74.1221 97.4204 73.8768 97.5698C73.6314 97.7191 73.4288 97.9111 73.2688 98.1458C73.1088 98.3698 72.9914 98.6204 72.9168 98.8978C72.8528 99.1644 72.8207 99.4258 72.8207 99.6818C72.8207 100.407 72.9914 100.962 73.3328 101.346C73.6848 101.719 74.2074 101.906 74.9008 101.906ZM87.516 100.802C87.516 102.999 86.9667 104.663 85.868 105.794C84.78 106.914 83.1587 107.479 81.004 107.49L80.956 106.242C81.628 106.242 82.2307 106.178 82.764 106.05C83.308 105.922 83.7827 105.719 84.188 105.442C84.5933 105.154 84.9293 104.786 85.196 104.338C85.4733 103.89 85.676 103.34 85.804 102.69C85.5267 102.818 85.212 102.924 84.86 103.01C84.508 103.084 84.1453 103.122 83.772 103.122C83.1427 103.122 82.6093 103.031 82.172 102.85C81.7347 102.658 81.3773 102.407 81.1 102.098C80.8227 101.778 80.62 101.415 80.492 101.01C80.3747 100.594 80.316 100.162 80.316 99.7138C80.316 99.3191 80.3853 98.9084 80.524 98.4818C80.6627 98.0551 80.8707 97.6658 81.148 97.3138C81.436 96.9618 81.7987 96.6738 82.236 96.4498C82.6733 96.2258 83.1907 96.1138 83.788 96.1138C84.396 96.1138 84.9293 96.2204 85.388 96.4338C85.8573 96.6471 86.2467 96.9564 86.556 97.3618C86.876 97.7671 87.116 98.2631 87.276 98.8498C87.436 99.4258 87.516 100.076 87.516 100.802ZM83.932 101.906C84.3053 101.906 84.6573 101.874 84.988 101.81C85.3187 101.735 85.6387 101.628 85.948 101.49C85.9587 101.372 85.964 101.26 85.964 101.154C85.964 101.036 85.964 100.919 85.964 100.802C85.964 100.343 85.932 99.9058 85.868 99.4898C85.804 99.0631 85.6867 98.6951 85.516 98.3858C85.356 98.0658 85.1373 97.8151 84.86 97.6338C84.5827 97.4418 84.2307 97.3458 83.804 97.3458C83.452 97.3458 83.1533 97.4204 82.908 97.5698C82.6627 97.7191 82.46 97.9111 82.3 98.1458C82.14 98.3698 82.0227 98.6204 81.948 98.8978C81.884 99.1644 81.852 99.4258 81.852 99.6818C81.852 100.407 82.0227 100.962 82.364 101.346C82.716 101.719 83.2387 101.906 83.932 101.906Z" fill="url(#paint2_linear_123_477)"/>
</g>
</g>
</g>
</g>
<defs>
<filter id="filter0_i_123_477" x="0" y="0" width="158" height="162" filterUnits="userSpaceOnUse" color-interpolation-filters="sRGB">
<feFlood flood-opacity="0" result="BackgroundImageFix"/>
<feBlend mode="normal" in="SourceGraphic" in2="BackgroundImageFix" result="shape"/>
<feColorMatrix in="SourceAlpha" type="matrix" values="0 0 0 0 0 0 0 0 0 0 0 0 0 0 0 0 0 0 127 0" result="hardAlpha"/>
<feOffset dy="4"/>
<feGaussianBlur stdDeviation="2"/>
<feComposite in2="hardAlpha" operator="arithmetic" k2="-1" k3="1"/>
<feColorMatrix type="matrix" values="0 0 0 0 0 0 0 0 0 0 0 0 0 0 0 0 0 0 0.25 0"/>
<feBlend mode="normal" in2="shape" result="effect1_innerShadow_123_477"/>
</filter>
<filter id="filter1_d_123_477" x="16" y="18" width="126" height="126" filterUnits="userSpaceOnUse" color-interpolation-filters="sRGB">
<feFlood flood-opacity="0" result="BackgroundImageFix"/>
<feColorMatrix in="SourceAlpha" type="matrix" values="0 0 0 0 0 0 0 0 0 0 0 0 0 0 0 0 0 0 127 0" result="hardAlpha"/>
<feOffset dy="2"/>
<feGaussianBlur stdDeviation="2"/>
<feComposite in2="hardAlpha" operator="out"/>
<feColorMatrix type="matrix" values="0 0 0 0 0 0 0 0 0 0 0 0 0 0 0 0 0 0 0.25 0"/>
<feBlend mode="normal" in2="BackgroundImageFix" result="effect1_dropShadow_123_477"/>
<feBlend mode="normal" in="SourceGraphic" in2="effect1_dropShadow_123_477" result="shape"/>
</filter>
<filter id="filter2_i_123_477" x="54" y="88.5" width="52" height="28" filterUnits="userSpaceOnUse" color-interpolation-filters="sRGB">
<feFlood flood-opacity="0" result="BackgroundImageFix"/>
<feBlend mode="normal" in="SourceGraphic" in2="BackgroundImageFix" result="shape"/>
<feColorMatrix in="SourceAlpha" type="matrix" values="0 0 0 0 0 0 0 0 0 0 0 0 0 0 0 0 0 0 127 0" result="hardAlpha"/>
<feOffset dx="2" dy="2"/>
<feGaussianBlur stdDeviation="2"/>
<feComposite in2="hardAlpha" operator="arithmetic" k2="-1" k3="1"/>
<feColorMatrix type="matrix" values="0 0 0 0 0 0 0 0 0 0 0 0 0 0 0 0 0 0 0.25 0"/>
<feBlend mode="normal" in2="shape" result="effect1_innerShadow_123_477"/>
</filter>
<linearGradient id="paint0_linear_123_477" x1="79" y1="0" x2="79" y2="158" gradientUnits="userSpaceOnUse">
<stop stop-color="#FB923C"/>
<stop offset="0.520833" stop-color="#FB923C" stop-opacity="0.479167"/>
<stop offset="1" stop-color="#FED7AA"/>
</linearGradient>
<linearGradient id="paint1_linear_123_477" x1="79" y1="43.5" x2="79" y2="67.5" gradientUnits="userSpaceOnUse">
<stop stop-color="white"/>
<stop offset="1" stop-color="#FED7AA"/>
</linearGradient>
<linearGradient id="paint2_linear_123_477" x1="79.5" y1="93.4578" x2="79.5" y2="109.458" gradientUnits="userSpaceOnUse">
<stop stop-color="white"/>
<stop offset="1" stop-color="#FED7AA"/>
</linearGradient>
<clipPath id="clip0_123_477">
<rect width="62" height="26" fill="white" transform="translate(48 88.5)"/>
</clipPath>
</defs>
</svg>
