<svg width="238" height="238" viewBox="0 0 238 238" fill="none" xmlns="http://www.w3.org/2000/svg">
<g filter="url(#filter0_d_1_512)">
<circle cx="119" cy="115" r="115" fill="#FFEBE0" fill-opacity="0.2" shape-rendering="crispEdges"/>
</g>
<path d="M118.309 2V117L37 198.309C57.8438 219.107 86.5938 232 118.309 232C181.828 232 233.309 180.52 233.309 117C233.309 53.4805 181.828 2 118.309 2Z" fill="#FD9B63"/>
<path d="M118.309 2V117L37 198.309C57.8438 219.107 86.5938 232 118.309 232C181.828 232 233.309 180.52 233.309 117C233.309 53.4805 181.828 2 118.309 2Z" fill="url(#paint0_linear_1_512)" fill-opacity="0.2"/>
<g filter="url(#filter1_d_1_512)">
<circle cx="118" cy="116" r="100" fill="white"/>
<circle cx="118" cy="116" r="95" stroke="#FD9B63" stroke-opacity="0.1" stroke-width="10"/>
</g>
<path d="M107.477 187.84H103.765V198H102.221V187.84H98.5009V186.536H107.477V187.84ZM113.113 193.064C113.113 192.733 113.065 192.432 112.969 192.16C112.878 191.883 112.742 191.645 112.561 191.448C112.385 191.245 112.169 191.091 111.913 190.984C111.657 190.872 111.366 190.816 111.041 190.816C110.358 190.816 109.817 191.016 109.417 191.416C109.022 191.811 108.777 192.36 108.681 193.064H113.113ZM114.265 196.864C114.089 197.077 113.878 197.264 113.633 197.424C113.388 197.579 113.124 197.707 112.841 197.808C112.564 197.909 112.276 197.984 111.977 198.032C111.678 198.085 111.382 198.112 111.089 198.112C110.529 198.112 110.012 198.019 109.537 197.832C109.068 197.64 108.66 197.363 108.313 197C107.972 196.632 107.705 196.179 107.513 195.64C107.321 195.101 107.225 194.483 107.225 193.784C107.225 193.219 107.31 192.691 107.481 192.2C107.657 191.709 107.908 191.285 108.233 190.928C108.558 190.565 108.956 190.283 109.425 190.08C109.894 189.872 110.422 189.768 111.009 189.768C111.494 189.768 111.942 189.851 112.353 190.016C112.769 190.176 113.126 190.411 113.425 190.72C113.729 191.024 113.966 191.403 114.137 191.856C114.308 192.304 114.393 192.816 114.393 193.392C114.393 193.616 114.369 193.765 114.321 193.84C114.273 193.915 114.182 193.952 114.049 193.952H108.633C108.649 194.464 108.718 194.909 108.841 195.288C108.969 195.667 109.145 195.984 109.369 196.24C109.593 196.491 109.86 196.68 110.169 196.808C110.478 196.931 110.825 196.992 111.209 196.992C111.566 196.992 111.873 196.952 112.129 196.872C112.39 196.787 112.614 196.696 112.801 196.6C112.988 196.504 113.142 196.416 113.265 196.336C113.393 196.251 113.502 196.208 113.593 196.208C113.71 196.208 113.801 196.253 113.865 196.344L114.265 196.864ZM116.942 198V189.896H117.798C118.001 189.896 118.126 189.995 118.174 190.192L118.278 191.024C118.577 190.656 118.913 190.355 119.286 190.12C119.659 189.885 120.091 189.768 120.582 189.768C121.126 189.768 121.566 189.92 121.902 190.224C122.243 190.528 122.489 190.939 122.638 191.456C122.755 191.163 122.905 190.909 123.086 190.696C123.273 190.483 123.481 190.307 123.71 190.168C123.939 190.029 124.182 189.928 124.438 189.864C124.699 189.8 124.963 189.768 125.23 189.768C125.657 189.768 126.035 189.837 126.366 189.976C126.702 190.109 126.985 190.307 127.214 190.568C127.449 190.829 127.627 191.152 127.75 191.536C127.873 191.915 127.934 192.349 127.934 192.84V198H126.502V192.84C126.502 192.205 126.363 191.725 126.086 191.4C125.809 191.069 125.409 190.904 124.886 190.904C124.651 190.904 124.427 190.947 124.214 191.032C124.006 191.112 123.822 191.232 123.662 191.392C123.502 191.552 123.374 191.755 123.278 192C123.187 192.24 123.142 192.52 123.142 192.84V198H121.71V192.84C121.71 192.189 121.579 191.704 121.318 191.384C121.057 191.064 120.675 190.904 120.174 190.904C119.822 190.904 119.497 191 119.198 191.192C118.899 191.379 118.625 191.635 118.374 191.96V198H116.942ZM132.33 196.048C132.592 196.4 132.877 196.648 133.186 196.792C133.496 196.936 133.842 197.008 134.226 197.008C134.984 197.008 135.565 196.739 135.97 196.2C136.376 195.661 136.578 194.893 136.578 193.896C136.578 193.368 136.53 192.915 136.434 192.536C136.344 192.157 136.21 191.848 136.034 191.608C135.858 191.363 135.642 191.184 135.386 191.072C135.13 190.96 134.84 190.904 134.514 190.904C134.05 190.904 133.642 191.011 133.29 191.224C132.944 191.437 132.624 191.739 132.33 192.128V196.048ZM132.258 191.152C132.6 190.731 132.994 190.392 133.442 190.136C133.89 189.88 134.402 189.752 134.978 189.752C135.448 189.752 135.872 189.843 136.25 190.024C136.629 190.2 136.952 190.464 137.218 190.816C137.485 191.163 137.69 191.595 137.834 192.112C137.978 192.629 138.05 193.224 138.05 193.896C138.05 194.493 137.97 195.051 137.81 195.568C137.65 196.08 137.418 196.525 137.114 196.904C136.816 197.277 136.448 197.573 136.01 197.792C135.578 198.005 135.09 198.112 134.546 198.112C134.05 198.112 133.624 198.029 133.266 197.864C132.914 197.693 132.602 197.459 132.33 197.16V200.744H130.898V189.896H131.754C131.957 189.896 132.082 189.995 132.13 190.192L132.258 191.152Z" fill="#9B9B9B"/>
<path d="M132 134.973C132 133.599 132.495 132.418 133.456 131.456C134.445 130.467 135.599 130 136.973 130C138.319 130 139.5 130.495 140.462 131.456C141.423 132.445 141.918 133.599 141.918 134.973C141.918 136.346 141.423 137.527 140.462 138.516C139.5 139.505 138.319 140 136.973 140C135.626 140 134.445 139.505 133.456 138.516C132.467 137.527 132 136.346 132 134.973V134.973ZM134.418 134.973C134.418 135.687 134.665 136.291 135.159 136.813C135.681 137.335 136.286 137.582 137 137.582C137.714 137.582 138.319 137.335 138.841 136.813C139.363 136.291 139.61 135.687 139.61 134.973C139.61 134.258 139.363 133.654 138.841 133.159C138.319 132.665 137.714 132.39 137 132.39C136.286 132.39 135.681 132.637 135.159 133.132C134.665 133.626 134.418 134.231 134.418 134.973Z" fill="#FD9B63"/>
<path d="M90.3503 145.488C90.3503 146.256 90.1903 147.003 89.8703 147.728C89.5716 148.432 89.1663 149.136 88.6543 149.84C88.1423 150.523 87.5663 151.205 86.9263 151.888C86.2863 152.549 85.6463 153.2 85.0063 153.84C84.6436 154.203 84.2169 154.629 83.7263 155.12C83.2569 155.611 82.8089 156.123 82.3823 156.656C81.9556 157.189 81.5929 157.701 81.2943 158.192C81.0169 158.683 80.8783 159.109 80.8783 159.472H91.0863V162H77.6463C77.6249 161.872 77.6143 161.744 77.6143 161.616C77.6143 161.488 77.6143 161.371 77.6143 161.264C77.6143 160.261 77.7743 159.333 78.0943 158.48C78.4356 157.605 78.8729 156.784 79.4062 156.016C79.9396 155.248 80.5369 154.523 81.1983 153.84C81.8596 153.157 82.5103 152.496 83.1503 151.856C83.6836 151.344 84.1849 150.843 84.6543 150.352C85.1449 149.84 85.5716 149.339 85.9343 148.848C86.3183 148.336 86.6169 147.813 86.8303 147.28C87.0649 146.747 87.1823 146.181 87.1823 145.584C87.1823 144.944 87.0756 144.4 86.8623 143.952C86.6703 143.504 86.4036 143.131 86.0623 142.832C85.7209 142.533 85.3156 142.32 84.8463 142.192C84.3983 142.043 83.9183 141.968 83.4062 141.968C82.7876 141.968 82.2223 142.053 81.7103 142.224C81.1983 142.395 80.7396 142.597 80.3343 142.832C79.9289 143.045 79.5876 143.28 79.3103 143.536C79.0329 143.771 78.8196 143.952 78.6703 144.08L77.1983 141.968C77.3903 141.755 77.6783 141.499 78.0623 141.2C78.4463 140.88 78.9049 140.581 79.4383 140.304C79.9716 140.027 80.5689 139.792 81.2303 139.6C81.8916 139.408 82.6063 139.312 83.3743 139.312C85.6996 139.312 87.4383 139.856 88.5903 140.944C89.7636 142.011 90.3503 143.525 90.3503 145.488ZM108.413 145.488C108.413 146.256 108.253 147.003 107.933 147.728C107.634 148.432 107.229 149.136 106.717 149.84C106.205 150.523 105.629 151.205 104.989 151.888C104.349 152.549 103.709 153.2 103.069 153.84C102.706 154.203 102.279 154.629 101.789 155.12C101.319 155.611 100.871 156.123 100.445 156.656C100.018 157.189 99.6554 157.701 99.3568 158.192C99.0794 158.683 98.9408 159.109 98.9408 159.472H109.149V162H95.7088C95.6874 161.872 95.6768 161.744 95.6768 161.616C95.6768 161.488 95.6768 161.371 95.6768 161.264C95.6768 160.261 95.8368 159.333 96.1568 158.48C96.4981 157.605 96.9354 156.784 97.4688 156.016C98.0021 155.248 98.5994 154.523 99.2608 153.84C99.9221 153.157 100.573 152.496 101.213 151.856C101.746 151.344 102.247 150.843 102.717 150.352C103.207 149.84 103.634 149.339 103.997 148.848C104.381 148.336 104.679 147.813 104.893 147.28C105.127 146.747 105.245 146.181 105.245 145.584C105.245 144.944 105.138 144.4 104.925 143.952C104.733 143.504 104.466 143.131 104.125 142.832C103.783 142.533 103.378 142.32 102.909 142.192C102.461 142.043 101.981 141.968 101.469 141.968C100.85 141.968 100.285 142.053 99.7728 142.224C99.2608 142.395 98.8021 142.597 98.3968 142.832C97.9914 143.045 97.6501 143.28 97.3728 143.536C97.0954 143.771 96.8821 143.952 96.7328 144.08L95.2608 141.968C95.4528 141.755 95.7408 141.499 96.1248 141.2C96.5088 140.88 96.9674 140.581 97.5008 140.304C98.0341 140.027 98.6314 139.792 99.2928 139.6C99.9541 139.408 100.669 139.312 101.437 139.312C103.762 139.312 105.501 139.856 106.653 140.944C107.826 142.011 108.413 143.525 108.413 145.488ZM117.899 148.368C121.121 148.496 123.478 149.2 124.971 150.48C126.486 151.76 127.243 153.499 127.243 155.696C127.243 156.677 127.073 157.584 126.731 158.416C126.411 159.248 125.91 159.963 125.227 160.56C124.566 161.157 123.723 161.627 122.699 161.968C121.675 162.309 120.459 162.48 119.051 162.48C118.497 162.48 117.931 162.437 117.355 162.352C116.779 162.267 116.246 162.16 115.755 162.032C115.265 161.904 114.827 161.776 114.443 161.648C114.059 161.52 113.782 161.413 113.611 161.328L114.187 158.736C114.55 158.907 115.137 159.131 115.947 159.408C116.779 159.685 117.793 159.824 118.987 159.824C119.947 159.824 120.747 159.717 121.387 159.504C122.049 159.291 122.582 159.003 122.987 158.64C123.393 158.277 123.681 157.861 123.851 157.392C124.043 156.901 124.139 156.389 124.139 155.856C124.139 155.045 124.001 154.331 123.723 153.712C123.446 153.072 122.955 152.539 122.251 152.112C121.547 151.685 120.609 151.365 119.435 151.152C118.262 150.917 116.779 150.8 114.987 150.8C115.115 149.755 115.211 148.773 115.275 147.856C115.361 146.939 115.435 146.043 115.499 145.168C115.563 144.293 115.617 143.429 115.659 142.576C115.702 141.701 115.745 140.784 115.787 139.824H126.475V142.352H118.379C118.358 142.672 118.326 143.109 118.283 143.664C118.241 144.197 118.198 144.763 118.155 145.36C118.113 145.936 118.07 146.501 118.027 147.056C117.985 147.611 117.942 148.048 117.899 148.368Z" fill="#1C2C46"/>
<path d="M154.366 162.48C152.809 162.48 151.39 162.224 150.11 161.712C148.83 161.2 147.731 160.453 146.814 159.472C145.897 158.491 145.182 157.285 144.67 155.856C144.179 154.405 143.934 152.752 143.934 150.896C143.934 149.04 144.211 147.397 144.766 145.968C145.342 144.517 146.11 143.301 147.07 142.32C148.03 141.339 149.15 140.592 150.43 140.08C151.71 139.568 153.075 139.312 154.526 139.312C155.443 139.312 156.265 139.376 156.99 139.504C157.737 139.632 158.377 139.781 158.91 139.952C159.465 140.123 159.913 140.293 160.254 140.464C160.595 140.635 160.83 140.763 160.958 140.848L160.062 143.408C159.87 143.28 159.593 143.141 159.23 142.992C158.867 142.843 158.451 142.693 157.982 142.544C157.534 142.395 157.033 142.277 156.478 142.192C155.945 142.085 155.401 142.032 154.846 142.032C153.673 142.032 152.617 142.235 151.678 142.64C150.739 143.045 149.939 143.632 149.278 144.4C148.617 145.168 148.105 146.107 147.742 147.216C147.401 148.304 147.23 149.531 147.23 150.896C147.23 152.219 147.379 153.424 147.678 154.512C147.998 155.6 148.467 156.539 149.086 157.328C149.705 158.096 150.473 158.693 151.39 159.12C152.329 159.547 153.417 159.76 154.654 159.76C156.083 159.76 157.267 159.611 158.206 159.312C159.145 159.013 159.849 158.747 160.318 158.512L161.118 161.072C160.969 161.179 160.702 161.317 160.318 161.488C159.934 161.637 159.454 161.787 158.878 161.936C158.302 162.085 157.63 162.213 156.862 162.32C156.094 162.427 155.262 162.48 154.366 162.48Z" fill="#1C2C46"/>
<path d="M72.1649 85.368C75.3862 85.496 77.7435 86.2 79.2369 87.48C80.7515 88.76 81.5089 90.4987 81.5089 92.696C81.5089 93.6773 81.3382 94.584 80.9969 95.416C80.6769 96.248 80.1755 96.9627 79.4929 97.56C78.8315 98.1573 77.9889 98.6267 76.9649 98.968C75.9409 99.3093 74.7249 99.48 73.3169 99.48C72.7622 99.48 72.1969 99.4373 71.6209 99.352C71.0449 99.2667 70.5115 99.16 70.0209 99.032C69.5302 98.904 69.0929 98.776 68.7089 98.648C68.3249 98.52 68.0475 98.4133 67.8769 98.328L68.4529 95.736C68.8155 95.9067 69.4022 96.1307 70.2129 96.408C71.0449 96.6853 72.0582 96.824 73.2529 96.824C74.2129 96.824 75.0129 96.7173 75.6529 96.504C76.3142 96.2907 76.8475 96.0027 77.2529 95.64C77.6582 95.2773 77.9462 94.8613 78.1169 94.392C78.3089 93.9013 78.4049 93.3893 78.4049 92.856C78.4049 92.0453 78.2662 91.3307 77.9889 90.712C77.7115 90.072 77.2209 89.5387 76.5169 89.112C75.8129 88.6853 74.8742 88.3653 73.7009 88.152C72.5275 87.9173 71.0449 87.8 69.2529 87.8C69.3809 86.7547 69.4769 85.7733 69.5409 84.856C69.6262 83.9387 69.7009 83.0427 69.7649 82.168C69.8289 81.2933 69.8822 80.4293 69.9249 79.576C69.9675 78.7013 70.0102 77.784 70.0529 76.824H80.7409V79.352H72.6449C72.6235 79.672 72.5915 80.1093 72.5489 80.664C72.5062 81.1973 72.4635 81.7627 72.4209 82.36C72.3782 82.936 72.3355 83.5013 72.2929 84.056C72.2502 84.6107 72.2075 85.048 72.1649 85.368ZM101.491 85.688C101.491 90.0827 100.393 93.4107 98.1954 95.672C96.0194 97.912 92.7767 99.0427 88.4674 99.064L88.3714 96.568C89.7154 96.568 90.9207 96.44 91.9874 96.184C93.0754 95.928 94.0247 95.5227 94.8354 94.968C95.646 94.392 96.318 93.656 96.8514 92.76C97.406 91.864 97.8114 90.7653 98.0674 89.464C97.5127 89.72 96.8834 89.9333 96.1794 90.104C95.4754 90.2533 94.75 90.328 94.0034 90.328C92.7447 90.328 91.678 90.1467 90.8034 89.784C89.9287 89.4 89.214 88.8987 88.6594 88.28C88.1047 87.64 87.6994 86.9147 87.4434 86.104C87.2087 85.272 87.0914 84.408 87.0914 83.512C87.0914 82.7227 87.23 81.9013 87.5074 81.048C87.7847 80.1947 88.2007 79.416 88.7554 78.712C89.3314 78.008 90.0567 77.432 90.9314 76.984C91.806 76.536 92.8407 76.312 94.0354 76.312C95.2514 76.312 96.318 76.5253 97.2354 76.952C98.174 77.3787 98.9527 77.9973 99.5714 78.808C100.211 79.6187 100.691 80.6107 101.011 81.784C101.331 82.936 101.491 84.2373 101.491 85.688ZM94.3234 87.896C95.07 87.896 95.774 87.832 96.4354 87.704C97.0967 87.5547 97.7367 87.3413 98.3554 87.064C98.3767 86.8293 98.3874 86.6053 98.3874 86.392C98.3874 86.1573 98.3874 85.9227 98.3874 85.688C98.3874 84.7707 98.3234 83.896 98.1954 83.064C98.0674 82.2107 97.8327 81.4747 97.4914 80.856C97.1714 80.216 96.734 79.7147 96.1794 79.352C95.6247 78.968 94.9207 78.776 94.0674 78.776C93.3634 78.776 92.766 78.9253 92.2754 79.224C91.7847 79.5227 91.3794 79.9067 91.0594 80.376C90.7394 80.824 90.5047 81.3253 90.3554 81.88C90.2274 82.4133 90.1634 82.936 90.1634 83.448C90.1634 84.8987 90.5047 86.008 91.1874 86.776C91.8914 87.5227 92.9367 87.896 94.3234 87.896ZM111.202 97.272C111.202 97.848 111.01 98.3493 110.626 98.776C110.242 99.2027 109.719 99.416 109.058 99.416C108.397 99.416 107.874 99.2027 107.49 98.776C107.106 98.3493 106.914 97.848 106.914 97.272C106.914 96.696 107.106 96.1947 107.49 95.768C107.874 95.3413 108.397 95.128 109.058 95.128C109.719 95.128 110.242 95.3413 110.626 95.768C111.01 96.1947 111.202 96.696 111.202 97.272ZM120.965 85.368C124.186 85.496 126.544 86.2 128.037 87.48C129.552 88.76 130.309 90.4987 130.309 92.696C130.309 93.6773 130.138 94.584 129.797 95.416C129.477 96.248 128.976 96.9627 128.293 97.56C127.632 98.1573 126.789 98.6267 125.765 98.968C124.741 99.3093 123.525 99.48 122.117 99.48C121.562 99.48 120.997 99.4373 120.421 99.352C119.845 99.2667 119.312 99.16 118.821 99.032C118.33 98.904 117.893 98.776 117.509 98.648C117.125 98.52 116.848 98.4133 116.677 98.328L117.253 95.736C117.616 95.9067 118.202 96.1307 119.013 96.408C119.845 96.6853 120.858 96.824 122.053 96.824C123.013 96.824 123.813 96.7173 124.453 96.504C125.114 96.2907 125.648 96.0027 126.053 95.64C126.458 95.2773 126.746 94.8613 126.917 94.392C127.109 93.9013 127.205 93.3893 127.205 92.856C127.205 92.0453 127.066 91.3307 126.789 90.712C126.512 90.072 126.021 89.5387 125.317 89.112C124.613 88.6853 123.674 88.3653 122.501 88.152C121.328 87.9173 119.845 87.8 118.053 87.8C118.181 86.7547 118.277 85.7733 118.341 84.856C118.426 83.9387 118.501 83.0427 118.565 82.168C118.629 81.2933 118.682 80.4293 118.725 79.576C118.768 78.7013 118.81 77.784 118.853 76.824H129.541V79.352H121.445C121.424 79.672 121.392 80.1093 121.349 80.664C121.306 81.1973 121.264 81.7627 121.221 82.36C121.178 82.936 121.136 83.5013 121.093 84.056C121.05 84.6107 121.008 85.048 120.965 85.368ZM150.291 85.688C150.291 90.0827 149.193 93.4107 146.995 95.672C144.819 97.912 141.577 99.0427 137.267 99.064L137.171 96.568C138.515 96.568 139.721 96.44 140.787 96.184C141.875 95.928 142.825 95.5227 143.635 94.968C144.446 94.392 145.118 93.656 145.651 92.76C146.206 91.864 146.611 90.7653 146.867 89.464C146.313 89.72 145.683 89.9333 144.979 90.104C144.275 90.2533 143.55 90.328 142.803 90.328C141.545 90.328 140.478 90.1467 139.603 89.784C138.729 89.4 138.014 88.8987 137.459 88.28C136.905 87.64 136.499 86.9147 136.243 86.104C136.009 85.272 135.891 84.408 135.891 83.512C135.891 82.7227 136.03 81.9013 136.307 81.048C136.585 80.1947 137.001 79.416 137.555 78.712C138.131 78.008 138.857 77.432 139.731 76.984C140.606 76.536 141.641 76.312 142.835 76.312C144.051 76.312 145.118 76.5253 146.035 76.952C146.974 77.3787 147.753 77.9973 148.371 78.808C149.011 79.6187 149.491 80.6107 149.811 81.784C150.131 82.936 150.291 84.2373 150.291 85.688ZM143.123 87.896C143.87 87.896 144.574 87.832 145.235 87.704C145.897 87.5547 146.537 87.3413 147.155 87.064C147.177 86.8293 147.187 86.6053 147.187 86.392C147.187 86.1573 147.187 85.9227 147.187 85.688C147.187 84.7707 147.123 83.896 146.995 83.064C146.867 82.2107 146.633 81.4747 146.291 80.856C145.971 80.216 145.534 79.7147 144.979 79.352C144.425 78.968 143.721 78.776 142.867 78.776C142.163 78.776 141.566 78.9253 141.075 79.224C140.585 79.5227 140.179 79.9067 139.859 80.376C139.539 80.824 139.305 81.3253 139.155 81.88C139.027 82.4133 138.963 82.936 138.963 83.448C138.963 84.8987 139.305 86.008 139.987 86.776C140.691 87.5227 141.737 87.896 143.123 87.896ZM160.354 96.856C161.57 96.856 162.466 96.696 163.042 96.376C163.639 96.056 163.938 95.544 163.938 94.84C163.938 94.1147 163.65 93.5387 163.074 93.112C162.498 92.6853 161.549 92.2053 160.226 91.672C159.586 91.416 158.967 91.16 158.37 90.904C157.794 90.6267 157.293 90.3067 156.866 89.944C156.439 89.5813 156.098 89.144 155.842 88.632C155.586 88.12 155.458 87.4907 155.458 86.744C155.458 85.272 156.002 84.1093 157.09 83.256C158.178 82.3813 159.661 81.944 161.538 81.944C162.007 81.944 162.477 81.976 162.946 82.04C163.415 82.0827 163.853 82.1467 164.258 82.232C164.663 82.296 165.015 82.3707 165.314 82.456C165.634 82.5413 165.879 82.616 166.05 82.68L165.506 85.24C165.186 85.0693 164.685 84.8987 164.002 84.728C163.319 84.536 162.498 84.44 161.538 84.44C160.706 84.44 159.981 84.6107 159.362 84.952C158.743 85.272 158.434 85.784 158.434 86.488C158.434 86.8507 158.498 87.1707 158.626 87.448C158.775 87.7253 158.989 87.9813 159.266 88.216C159.565 88.4293 159.927 88.632 160.354 88.824C160.781 89.016 161.293 89.2187 161.89 89.432C162.679 89.7307 163.383 90.0293 164.002 90.328C164.621 90.6053 165.143 90.936 165.57 91.32C166.018 91.704 166.359 92.1733 166.594 92.728C166.829 93.2613 166.946 93.9227 166.946 94.712C166.946 96.248 166.37 97.4107 165.218 98.2C164.087 98.9893 162.466 99.384 160.354 99.384C158.882 99.384 157.73 99.256 156.898 99C156.066 98.7653 155.501 98.584 155.202 98.456L155.746 95.896C156.087 96.024 156.631 96.216 157.378 96.472C158.125 96.728 159.117 96.856 160.354 96.856Z" fill="#1C2C46"/>
<path d="M50.4927 118C50.2165 118 49.9927 118.224 49.9927 118.5C49.9927 118.776 50.2165 119 50.4927 119V118ZM186.507 119H187.007V118H186.507V119ZM50.4927 119H186.507V118H50.4927V119Z" fill="url(#paint1_radial_1_512)" fill-opacity="0.34"/>
<path d="M116.314 41.84H112.602V52H111.058V41.84H107.338V40.536H116.314V41.84ZM119.937 43.896V52H118.513V43.896H119.937ZM120.241 41.352C120.241 41.4907 120.211 41.6213 120.153 41.744C120.099 41.8613 120.025 41.968 119.929 42.064C119.838 42.1547 119.729 42.2267 119.601 42.28C119.478 42.3333 119.347 42.36 119.209 42.36C119.07 42.36 118.939 42.3333 118.817 42.28C118.699 42.2267 118.595 42.1547 118.505 42.064C118.414 41.968 118.342 41.8613 118.289 41.744C118.235 41.6213 118.209 41.4907 118.209 41.352C118.209 41.2133 118.235 41.0827 118.289 40.96C118.342 40.832 118.414 40.7227 118.505 40.632C118.595 40.536 118.699 40.4613 118.817 40.408C118.939 40.3547 119.07 40.328 119.209 40.328C119.347 40.328 119.478 40.3547 119.601 40.408C119.729 40.4613 119.838 40.536 119.929 40.632C120.025 40.7227 120.099 40.832 120.153 40.96C120.211 41.0827 120.241 41.2133 120.241 41.352ZM128.356 45.824C128.09 45.4667 127.802 45.2187 127.492 45.08C127.183 44.936 126.836 44.864 126.452 44.864C125.7 44.864 125.122 45.1333 124.716 45.672C124.311 46.2107 124.108 46.9787 124.108 47.976C124.108 48.504 124.154 48.9573 124.244 49.336C124.335 49.7093 124.468 50.0187 124.644 50.264C124.82 50.504 125.036 50.68 125.292 50.792C125.548 50.904 125.839 50.96 126.164 50.96C126.634 50.96 127.042 50.8533 127.388 50.64C127.74 50.4267 128.063 50.1253 128.356 49.736V45.824ZM129.78 40.216V52H128.932C128.73 52 128.602 51.9013 128.548 51.704L128.42 50.72C128.074 51.136 127.679 51.472 127.236 51.728C126.794 51.984 126.282 52.112 125.7 52.112C125.236 52.112 124.815 52.024 124.436 51.848C124.058 51.6667 123.735 51.4027 123.468 51.056C123.202 50.7093 122.996 50.2773 122.852 49.76C122.708 49.2427 122.636 48.648 122.636 47.976C122.636 47.3787 122.716 46.824 122.876 46.312C123.036 45.7947 123.266 45.3467 123.564 44.968C123.863 44.5893 124.228 44.2933 124.66 44.08C125.098 43.8613 125.588 43.752 126.132 43.752C126.628 43.752 127.052 43.8373 127.404 44.008C127.762 44.1733 128.079 44.4053 128.356 44.704V40.216H129.78Z" fill="#9B9B9B"/>
<defs>
<filter id="filter0_d_1_512" x="0" y="0" width="238" height="238" filterUnits="userSpaceOnUse" color-interpolation-filters="sRGB">
<feFlood flood-opacity="0" result="BackgroundImageFix"/>
<feColorMatrix in="SourceAlpha" type="matrix" values="0 0 0 0 0 0 0 0 0 0 0 0 0 0 0 0 0 0 127 0" result="hardAlpha"/>
<feOffset dy="4"/>
<feGaussianBlur stdDeviation="2"/>
<feComposite in2="hardAlpha" operator="out"/>
<feColorMatrix type="matrix" values="0 0 0 0 0 0 0 0 0 0 0 0 0 0 0 0 0 0 0.25 0"/>
<feBlend mode="normal" in2="BackgroundImageFix" result="effect1_dropShadow_1_512"/>
<feBlend mode="normal" in="SourceGraphic" in2="effect1_dropShadow_1_512" result="shape"/>
</filter>
<filter id="filter1_d_1_512" x="14" y="16" width="208" height="208" filterUnits="userSpaceOnUse" color-interpolation-filters="sRGB">
<feFlood flood-opacity="0" result="BackgroundImageFix"/>
<feColorMatrix in="SourceAlpha" type="matrix" values="0 0 0 0 0 0 0 0 0 0 0 0 0 0 0 0 0 0 127 0" result="hardAlpha"/>
<feOffset dy="4"/>
<feGaussianBlur stdDeviation="2"/>
<feComposite in2="hardAlpha" operator="out"/>
<feColorMatrix type="matrix" values="0 0 0 0 0 0 0 0 0 0 0 0 0 0 0 0 0 0 0.25 0"/>
<feBlend mode="normal" in2="BackgroundImageFix" result="effect1_dropShadow_1_512"/>
<feBlend mode="normal" in="SourceGraphic" in2="effect1_dropShadow_1_512" result="shape"/>
</filter>
<linearGradient id="paint0_linear_1_512" x1="175.5" y1="-3" x2="39" y2="199" gradientUnits="userSpaceOnUse">
<stop stop-color="#FF5D00"/>
<stop offset="1" stop-color="#EE5F0D" stop-opacity="0.37"/>
</linearGradient>
<radialGradient id="paint1_radial_1_512" cx="0" cy="0" r="1" gradientUnits="userSpaceOnUse" gradientTransform="translate(187.5 118.499) rotate(179.792) scale(137.501 18702.1)">
<stop/>
<stop offset="0.515625" stop-color="#6D6B6B"/>
<stop offset="1" stop-color="#090808"/>
</radialGradient>
</defs>
</svg>
