<svg width="237" height="69" viewBox="0 0 237 69" fill="none" xmlns="http://www.w3.org/2000/svg">
<rect width="237" height="69" rx="10" fill="#615B5B"/>
<path d="M26.3463 36.44H28.1263L31.1263 44.66H30.9063L33.9063 36.44H35.6863L31.8663 46H30.1663L26.3463 36.44ZM43.9849 46L43.7849 43.9V39.8C43.7849 38.94 43.6016 38.3233 43.2349 37.95C42.8683 37.57 42.3183 37.38 41.5849 37.38C41.1716 37.38 40.7949 37.44 40.4549 37.56C40.1216 37.68 39.8549 37.8667 39.6549 38.12C39.4616 38.3667 39.3649 38.6867 39.3649 39.08H37.6249C37.6249 38.3867 37.7949 37.83 38.1349 37.41C38.4749 36.9833 38.9416 36.6767 39.5349 36.49C40.1349 36.2967 40.8183 36.2 41.5849 36.2C42.3183 36.2 42.9683 36.3233 43.5349 36.57C44.1016 36.8167 44.5449 37.21 44.8649 37.75C45.1849 38.2833 45.3449 38.98 45.3449 39.84V46H43.9849ZM40.7249 46.24C39.9383 46.24 39.2883 46.1 38.7749 45.82C38.2616 45.54 37.8783 45.1767 37.6249 44.73C37.3716 44.2833 37.2449 43.8133 37.2449 43.32C37.2449 42.6733 37.4049 42.1467 37.7249 41.74C38.0516 41.3333 38.4949 41.0367 39.0549 40.85C39.6149 40.6567 40.2449 40.56 40.9449 40.56C41.4449 40.56 41.9449 40.61 42.4449 40.71C42.9516 40.81 43.4449 40.9467 43.9249 41.12V42.1C43.5249 41.94 43.0716 41.8133 42.5649 41.72C42.0649 41.6267 41.6049 41.58 41.1849 41.58C40.5449 41.58 40.0049 41.7133 39.5649 41.98C39.1249 42.24 38.9049 42.6867 38.9049 43.32C38.9049 43.7867 39.0716 44.1867 39.4049 44.52C39.7449 44.8533 40.2849 45.02 41.0249 45.02C41.5449 45.02 42.0116 44.9 42.4249 44.66C42.8449 44.4133 43.1749 44.1067 43.4149 43.74C43.6616 43.3733 43.7849 43.0067 43.7849 42.64H44.1649C44.1649 43.28 44.0249 43.8733 43.7449 44.42C43.4716 44.9667 43.0783 45.4067 42.5649 45.74C42.0516 46.0733 41.4383 46.24 40.7249 46.24ZM49.0805 46V36.42H50.6405V46H49.0805ZM50.1605 41.68C50.1605 40.4667 50.2772 39.46 50.5105 38.66C50.7439 37.8533 51.0839 37.2533 51.5305 36.86C51.9839 36.46 52.5339 36.26 53.1805 36.26C53.3939 36.26 53.5872 36.2767 53.7605 36.31C53.9405 36.3367 54.1205 36.38 54.3005 36.44L54.2005 37.98C54.0139 37.92 53.8105 37.87 53.5905 37.83C53.3705 37.7833 53.1739 37.76 53.0005 37.76C52.4339 37.76 51.9772 37.9233 51.6305 38.25C51.2839 38.57 51.0305 39.0233 50.8705 39.61C50.7172 40.1967 50.6405 40.8867 50.6405 41.68H50.1605ZM62.2271 46L62.0271 43.9V39.8C62.0271 38.94 61.8438 38.3233 61.4771 37.95C61.1104 37.57 60.5604 37.38 59.8271 37.38C59.4138 37.38 59.0371 37.44 58.6971 37.56C58.3638 37.68 58.0971 37.8667 57.8971 38.12C57.7038 38.3667 57.6071 38.6867 57.6071 39.08H55.8671C55.8671 38.3867 56.0371 37.83 56.3771 37.41C56.7171 36.9833 57.1838 36.6767 57.7771 36.49C58.3771 36.2967 59.0604 36.2 59.8271 36.2C60.5604 36.2 61.2104 36.3233 61.7771 36.57C62.3438 36.8167 62.7871 37.21 63.1071 37.75C63.4271 38.2833 63.5871 38.98 63.5871 39.84V46H62.2271ZM58.9671 46.24C58.1804 46.24 57.5304 46.1 57.0171 45.82C56.5038 45.54 56.1204 45.1767 55.8671 44.73C55.6138 44.2833 55.4871 43.8133 55.4871 43.32C55.4871 42.6733 55.6471 42.1467 55.9671 41.74C56.2938 41.3333 56.7371 41.0367 57.2971 40.85C57.8571 40.6567 58.4871 40.56 59.1871 40.56C59.6871 40.56 60.1871 40.61 60.6871 40.71C61.1938 40.81 61.6871 40.9467 62.1671 41.12V42.1C61.7671 41.94 61.3138 41.8133 60.8071 41.72C60.3071 41.6267 59.8471 41.58 59.4271 41.58C58.7871 41.58 58.2471 41.7133 57.8071 41.98C57.3671 42.24 57.1471 42.6867 57.1471 43.32C57.1471 43.7867 57.3138 44.1867 57.6471 44.52C57.9871 44.8533 58.5271 45.02 59.2671 45.02C59.7871 45.02 60.2538 44.9 60.6671 44.66C61.0871 44.4133 61.4171 44.1067 61.6571 43.74C61.9038 43.3733 62.0271 43.0067 62.0271 42.64H62.4071C62.4071 43.28 62.2671 43.8733 61.9871 44.42C61.7138 44.9667 61.3204 45.4067 60.8071 45.74C60.2938 46.0733 59.6804 46.24 58.9671 46.24ZM85.5088 46V40.38C85.5088 39.4667 85.2888 38.7733 84.8488 38.3C84.4155 37.82 83.8288 37.58 83.0888 37.58C82.2222 37.58 81.5588 37.9167 81.0988 38.59C80.6388 39.2567 80.4088 40.18 80.4088 41.36H79.6888C79.6888 40.5 79.7722 39.7467 79.9388 39.1C80.1122 38.4533 80.3622 37.9167 80.6888 37.49C81.0155 37.0567 81.4122 36.7333 81.8788 36.52C82.3455 36.3067 82.8755 36.2 83.4688 36.2C84.2222 36.2 84.8655 36.37 85.3988 36.71C85.9388 37.0433 86.3522 37.5233 86.6388 38.15C86.9255 38.7767 87.0688 39.52 87.0688 40.38V46H85.5088ZM72.0688 46V36.44H73.4088L73.5888 38.36C73.8888 37.6667 74.3088 37.1333 74.8488 36.76C75.3955 36.3867 76.0488 36.2 76.8088 36.2C77.5622 36.2 78.2055 36.37 78.7388 36.71C79.2788 37.0433 79.6922 37.5233 79.9788 38.15C80.2655 38.7767 80.4088 39.52 80.4088 40.38V46H78.8688V40.38C78.8688 39.4667 78.6488 38.7733 78.2088 38.3C77.7755 37.82 77.1822 37.58 76.4288 37.58C75.8555 37.58 75.3588 37.7367 74.9388 38.05C74.5188 38.3633 74.1955 38.8133 73.9688 39.4C73.7422 39.98 73.6288 40.6733 73.6288 41.48V46H72.0688ZM94.0998 46.24C93.2731 46.24 92.5331 46.03 91.8798 45.61C91.2331 45.1833 90.7198 44.5933 90.3398 43.84C89.9664 43.0867 89.7798 42.22 89.7798 41.24C89.7798 40.1933 89.9664 39.2933 90.3398 38.54C90.7131 37.7867 91.2231 37.21 91.8698 36.81C92.5231 36.4033 93.2664 36.2 94.0998 36.2C94.8264 36.2 95.4464 36.3467 95.9598 36.64C96.4731 36.9333 96.8864 37.33 97.1998 37.83C97.5131 38.33 97.7298 38.8967 97.8498 39.53C97.9764 40.1567 98.0131 40.8067 97.9598 41.48H91.0398V40.52H96.9298L96.4698 40.82C96.4898 40.4267 96.4664 40.0333 96.3998 39.64C96.3398 39.2467 96.2231 38.8867 96.0498 38.56C95.8764 38.2267 95.6331 37.96 95.3198 37.76C95.0064 37.56 94.6064 37.46 94.1198 37.46C93.5064 37.46 92.9931 37.6167 92.5798 37.93C92.1664 38.2433 91.8564 38.6567 91.6498 39.17C91.4431 39.6767 91.3398 40.2267 91.3398 40.82V41.46C91.3398 42.1267 91.4398 42.7233 91.6398 43.25C91.8464 43.7767 92.1531 44.1933 92.5598 44.5C92.9664 44.8067 93.4798 44.96 94.0998 44.96C94.7198 44.96 95.2298 44.81 95.6298 44.51C96.0298 44.21 96.2731 43.7667 96.3598 43.18H97.9798C97.8798 43.8133 97.6531 44.36 97.2998 44.82C96.9464 45.2733 96.4964 45.6233 95.9498 45.87C95.4031 46.1167 94.7864 46.24 94.0998 46.24ZM104.473 46.24C103.7 46.24 102.99 46.0333 102.343 45.62C101.697 45.2 101.18 44.6133 100.793 43.86C100.407 43.1 100.213 42.2067 100.213 41.18C100.213 40.16 100.403 39.2767 100.783 38.53C101.163 37.7833 101.667 37.21 102.293 36.81C102.927 36.4033 103.62 36.2 104.373 36.2C105.073 36.2 105.687 36.37 106.213 36.71C106.747 37.05 107.16 37.54 107.453 38.18C107.747 38.82 107.893 39.5933 107.893 40.5H107.293C107.293 39.8667 107.167 39.3333 106.913 38.9C106.667 38.4667 106.343 38.14 105.943 37.92C105.543 37.6933 105.113 37.58 104.653 37.58C104.133 37.58 103.657 37.7267 103.223 38.02C102.797 38.3067 102.453 38.72 102.193 39.26C101.94 39.7933 101.813 40.4333 101.813 41.18C101.813 41.94 101.94 42.5933 102.193 43.14C102.453 43.6867 102.797 44.1067 103.223 44.4C103.657 44.6933 104.133 44.84 104.653 44.84C105.087 44.84 105.503 44.7267 105.903 44.5C106.31 44.2733 106.643 43.9433 106.903 43.51C107.163 43.07 107.293 42.54 107.293 41.92H107.893C107.893 42.8467 107.74 43.6333 107.433 44.28C107.133 44.92 106.723 45.4067 106.203 45.74C105.69 46.0733 105.113 46.24 104.473 46.24ZM107.553 46L107.293 43.76V32.36H108.853V46H107.553ZM145.997 46L153.773 23.392H157.193L164.789 46H161.837L159.929 40.204H150.929L148.949 46H145.997ZM151.649 38.008H159.209L155.429 26.812L151.649 38.008ZM169.332 23.392H172.68L184.164 42.004H183.912V23.392H186.72V46H183.588L171.708 26.776H172.14V46H169.332V23.392ZM191.278 46L199.054 23.392H202.474L210.07 46H207.118L205.21 40.204H196.21L194.23 46H191.278ZM196.93 38.008H204.49L200.71 26.812L196.93 38.008Z" fill="white"/>
<path d="M114.45 29.0721L111.792 33.3147L135.522 48.18L150.388 24.4502L146.145 21.7924L133.937 41.2796L114.45 29.0721Z" fill="#EC9068"/>
</svg>
